M48
; DRILL file {KiCad 9.0.1} date 2025-05-11T20:17:05+0200
; FORMAT={-:-/ absolute / metric / decimal}
; #@! TF.CreationDate,2025-05-11T20:17:05+02:00
; #@! TF.GenerationSoftware,Kicad,Pcbnew,9.0.1
; #@! TF.FileFunction,Plated,1,2,PTH
FMAT,2
METRIC
; #@! TA.AperFunction,Plated,PTH,ViaDrill
T1C0.300
; #@! TA.AperFunction,Plated,PTH,ComponentDrill
T2C0.700
; #@! TA.AperFunction,Plated,PTH,ComponentDrill
T3C0.800
; #@! TA.AperFunction,Plated,PTH,ComponentDrill
T4C0.990
; #@! TA.AperFunction,Plated,PTH,ComponentDrill
T5C1.000
; #@! TA.AperFunction,Plated,PTH,ComponentDrill
T6C1.250
; #@! TA.AperFunction,Plated,PTH,ComponentDrill
T7C1.300
; #@! TA.AperFunction,Plated,PTH,ComponentDrill
T8C1.540
%
G90
G05
T1
X98.5Y-99.4
X100.0Y-74.5
X110.4Y-71.0
X114.5Y-70.0
X121.5Y-70.5
X121.6Y-83.5
X124.5Y-83.5
X125.0Y-74.5
X126.5Y-75.5
X126.5Y-76.5
X127.014Y-74.9
X127.4Y-95.1
X127.5Y-77.5
X128.5Y-94.0
X129.4Y-73.6
X130.1Y-67.0
X132.0Y-91.5
X133.317Y-68.983
X134.5Y-86.5
X136.266Y-71.834
X137.5Y-95.5
X142.5Y-91.0
X148.5Y-78.0
X148.5Y-101.0
X149.8Y-78.0
X154.5Y-99.1
X155.0Y-74.0
X156.1Y-99.0
X156.5Y-75.0
X158.5Y-95.5
X159.4Y-101.3
X159.5Y-75.0
X159.9Y-77.9
X163.4Y-85.2
X164.0Y-87.9
X165.2Y-96.5
X185.2Y-77.9
X185.25Y-83.05
X185.3Y-85.2
X195.7Y-98.4
X211.8Y-78.0
T2
X124.93Y-68.09
X124.93Y-72.39
X129.73Y-68.09
X129.73Y-72.39
T3
X144.3Y-74.0
X147.7Y-74.0
T4
X88.112Y-100.775
X88.112Y-105.275
T5
X94.815Y-71.97
X94.815Y-74.47
X118.75Y-90.055
X121.25Y-90.055
X170.0Y-81.5
X170.0Y-84.04
X170.0Y-86.58
X170.0Y-89.12
X170.0Y-91.66
X170.0Y-94.2
X170.0Y-96.74
X170.0Y-99.28
X171.0Y-70.9
X178.6Y-70.9
X191.5Y-76.5
X191.5Y-79.04
X191.5Y-81.58
X191.5Y-84.12
X191.5Y-86.66
X191.5Y-89.2
X191.5Y-91.74
X191.5Y-94.28
X219.12Y-74.385
X221.66Y-74.385
X224.2Y-74.385
X226.74Y-74.385
X229.28Y-74.385
X237.45Y-90.35
X237.45Y-92.85
X237.455Y-79.65
X237.455Y-82.15
T6
X128.4Y-100.4
X128.4Y-105.4
X140.9Y-100.4
X140.9Y-105.4
T7
X90.612Y-99.425
X90.612Y-106.625
T8
X86.587Y-80.888
X86.587Y-95.087
X109.487Y-80.888
X109.487Y-84.388
X109.487Y-91.987
X109.487Y-95.387
M30
