%TF.GenerationSoftware,KiCad,Pcbnew,9.0.1*%
%TF.CreationDate,2025-05-11T20:17:02+02:00*%
%TF.ProjectId,BikeLight,42696b65-4c69-4676-9874-2e6b69636164,rev?*%
%TF.SameCoordinates,Original*%
%TF.FileFunction,Copper,L2,Bot*%
%TF.FilePolarity,Positive*%
%FSLAX46Y46*%
G04 Gerber Fmt 4.6, Leading zero omitted, Abs format (unit mm)*
G04 Created by KiCad (PCBNEW 9.0.1) date 2025-05-11 20:17:02*
%MOMM*%
%LPD*%
G01*
G04 APERTURE LIST*
G04 Aperture macros list*
%AMRoundRect*
0 Rectangle with rounded corners*
0 $1 Rounding radius*
0 $2 $3 $4 $5 $6 $7 $8 $9 X,Y pos of 4 corners*
0 Add a 4 corners polygon primitive as box body*
4,1,4,$2,$3,$4,$5,$6,$7,$8,$9,$2,$3,0*
0 Add four circle primitives for the rounded corners*
1,1,$1+$1,$2,$3*
1,1,$1+$1,$4,$5*
1,1,$1+$1,$6,$7*
1,1,$1+$1,$8,$9*
0 Add four rect primitives between the rounded corners*
20,1,$1+$1,$2,$3,$4,$5,0*
20,1,$1+$1,$4,$5,$6,$7,0*
20,1,$1+$1,$6,$7,$8,$9,0*
20,1,$1+$1,$8,$9,$2,$3,0*%
G04 Aperture macros list end*
%TA.AperFunction,ComponentPad*%
%ADD10C,2.100000*%
%TD*%
%TA.AperFunction,ComponentPad*%
%ADD11C,1.750000*%
%TD*%
%TA.AperFunction,HeatsinkPad*%
%ADD12C,1.100000*%
%TD*%
%TA.AperFunction,ComponentPad*%
%ADD13O,3.000000X1.500000*%
%TD*%
%TA.AperFunction,ComponentPad*%
%ADD14R,2.200000X2.200000*%
%TD*%
%TA.AperFunction,ComponentPad*%
%ADD15C,2.200000*%
%TD*%
%TA.AperFunction,ComponentPad*%
%ADD16C,1.600000*%
%TD*%
%TA.AperFunction,ComponentPad*%
%ADD17RoundRect,0.250000X-0.750000X0.600000X-0.750000X-0.600000X0.750000X-0.600000X0.750000X0.600000X0*%
%TD*%
%TA.AperFunction,ComponentPad*%
%ADD18O,2.000000X1.700000*%
%TD*%
%TA.AperFunction,ComponentPad*%
%ADD19RoundRect,0.250000X0.750000X-0.600000X0.750000X0.600000X-0.750000X0.600000X-0.750000X-0.600000X0*%
%TD*%
%TA.AperFunction,ComponentPad*%
%ADD20RoundRect,0.250000X-0.600000X-0.750000X0.600000X-0.750000X0.600000X0.750000X-0.600000X0.750000X0*%
%TD*%
%TA.AperFunction,ComponentPad*%
%ADD21O,1.700000X2.000000*%
%TD*%
%TA.AperFunction,ComponentPad*%
%ADD22R,2.800000X2.800000*%
%TD*%
%TA.AperFunction,ComponentPad*%
%ADD23R,2.000000X2.000000*%
%TD*%
%TA.AperFunction,ComponentPad*%
%ADD24C,2.000000*%
%TD*%
%TA.AperFunction,ComponentPad*%
%ADD25R,1.700000X1.700000*%
%TD*%
%TA.AperFunction,ComponentPad*%
%ADD26C,1.700000*%
%TD*%
%TA.AperFunction,ViaPad*%
%ADD27C,0.600000*%
%TD*%
%TA.AperFunction,Conductor*%
%ADD28C,0.428800*%
%TD*%
%TA.AperFunction,Conductor*%
%ADD29C,0.200000*%
%TD*%
%TA.AperFunction,Conductor*%
%ADD30C,0.400000*%
%TD*%
G04 APERTURE END LIST*
D10*
%TO.P,SW3,*%
%TO.N,*%
X90612500Y-106625000D03*
X90612500Y-99425000D03*
D11*
%TO.P,SW3,1,1*%
%TO.N,GND*%
X88112500Y-105275000D03*
%TO.P,SW3,2,2*%
%TO.N,Net-(C9-Pad2)*%
X88112500Y-100775000D03*
%TD*%
D12*
%TO.P,J3,S1,SHIELD*%
%TO.N,GND*%
X124930000Y-68090000D03*
X124930000Y-72390000D03*
X129730000Y-68090000D03*
X129730000Y-72390000D03*
%TD*%
D13*
%TO.P,U5,1,NSS/SDA*%
%TO.N,Net-(U5-NSS{slash}SDA)*%
X191500000Y-76500000D03*
%TO.P,U5,2,SCK/ADR_1*%
%TO.N,Net-(U5-SCK{slash}ADR_1)*%
X191500000Y-79040000D03*
%TO.P,U5,3,MOSI/ADR_0*%
%TO.N,Net-(U5-MOSI{slash}ADR_0)*%
X191500000Y-81580000D03*
%TO.P,U5,4,MISO/SCL*%
%TO.N,Net-(U5-MISO{slash}SCL)*%
X191500000Y-84120000D03*
%TO.P,U5,5,IRQ*%
%TO.N,Net-(U5-IRQ)*%
X191500000Y-86660000D03*
%TO.P,U5,6,GND*%
%TO.N,GND*%
X191500000Y-89200000D03*
%TO.P,U5,7,RST*%
%TO.N,unconnected-(U5-RST-Pad7)*%
X191500000Y-91740000D03*
%TO.P,U5,8,3.3V*%
%TO.N,+3.3V*%
X191500000Y-94280000D03*
%TD*%
D14*
%TO.P,SW2,1,1*%
%TO.N,Net-(U8-EN)*%
X128400000Y-100400000D03*
D15*
X140900000Y-100400000D03*
%TO.P,SW2,2,2*%
%TO.N,GND*%
X128400000Y-105400000D03*
X140900000Y-105400000D03*
%TD*%
D16*
%TO.P,R26,1*%
%TO.N,+3.3V*%
X144300000Y-74000000D03*
%TO.P,R26,2*%
%TO.N,/BUZZER*%
X147700000Y-74000000D03*
%TD*%
D13*
%TO.P,U2,1,VCC*%
%TO.N,+3.3V*%
X170000000Y-81500000D03*
%TO.P,U2,2,GND*%
%TO.N,GND*%
X170000000Y-84040000D03*
%TO.P,U2,3,SCL*%
%TO.N,Net-(U2-SCL)*%
X170000000Y-86580000D03*
%TO.P,U2,4,SDA*%
%TO.N,Net-(U2-SDA)*%
X170000000Y-89120000D03*
%TO.P,U2,5,XDA*%
%TO.N,Net-(U2-XDA)*%
X170000000Y-91660000D03*
%TO.P,U2,6,XCL*%
%TO.N,Net-(U2-XCL)*%
X170000000Y-94200000D03*
%TO.P,U2,7,AD0*%
%TO.N,unconnected-(U2-AD0-Pad7)*%
X170000000Y-96740000D03*
%TO.P,U2,8,INT*%
%TO.N,Net-(U2-INT)*%
X170000000Y-99280000D03*
%TD*%
D17*
%TO.P,J2,1,Pin_1*%
%TO.N,+SOLAR*%
X94815000Y-71970000D03*
D18*
%TO.P,J2,2,Pin_2*%
%TO.N,GND*%
X94815000Y-74470000D03*
%TD*%
D19*
%TO.P,J5,1,Pin_1*%
%TO.N,Net-(J5-Pin_1)*%
X237455000Y-82150000D03*
D18*
%TO.P,J5,2,Pin_2*%
%TO.N,GND*%
X237455000Y-79650000D03*
%TD*%
D20*
%TO.P,J1,1,Pin_1*%
%TO.N,+BATT*%
X118750000Y-90055000D03*
D21*
%TO.P,J1,2,Pin_2*%
%TO.N,-BATT*%
X121250000Y-90055000D03*
%TD*%
D22*
%TO.P,U1,1,+*%
%TO.N,VSOL*%
X86587500Y-80887500D03*
%TO.P,U1,2,-*%
%TO.N,GND*%
X86587500Y-95087500D03*
%TO.P,U1,3,OUT-*%
X109487500Y-95387500D03*
%TO.P,U1,4,B-*%
%TO.N,-BATT*%
X109487500Y-91987500D03*
%TO.P,U1,5,B+*%
%TO.N,+BATT*%
X109487500Y-84387500D03*
%TO.P,U1,6,OUT+*%
%TO.N,VOUT*%
X109487500Y-80887500D03*
%TD*%
D19*
%TO.P,J4,1,Pin_1*%
%TO.N,Net-(J4-Pin_1)*%
X237450000Y-92850000D03*
D18*
%TO.P,J4,2,Pin_2*%
%TO.N,GND*%
X237450000Y-90350000D03*
%TD*%
D23*
%TO.P,BZ1,1,+*%
%TO.N,Net-(BZ1-+)*%
X171000000Y-70900000D03*
D24*
%TO.P,BZ1,2,-*%
%TO.N,GND*%
X178600000Y-70900000D03*
%TD*%
D25*
%TO.P,J6,1,VCC*%
%TO.N,+3.3V*%
X219120000Y-74385000D03*
D26*
%TO.P,J6,2,GND*%
%TO.N,GND*%
X221660000Y-74385000D03*
%TO.P,J6,3,TXD*%
%TO.N,/GNSS_RX*%
X224200000Y-74385000D03*
%TO.P,J6,4,RXD*%
%TO.N,unconnected-(J6-RXD-Pad4)*%
X226740000Y-74385000D03*
%TO.P,J6,5,PPS*%
%TO.N,unconnected-(J6-PPS-Pad5)*%
X229280000Y-74385000D03*
%TD*%
D27*
%TO.N,/USB_DN*%
X136266026Y-71833974D03*
X133317157Y-68982843D03*
%TO.N,Net-(J3-CC2)*%
X127014068Y-74900000D03*
%TO.N,GND*%
X121500000Y-70500000D03*
X100000000Y-74500000D03*
X137500000Y-95500000D03*
X132000000Y-91500000D03*
X158500000Y-95500000D03*
X127400000Y-95100000D03*
X128500000Y-94000000D03*
X127500000Y-77500000D03*
X110400000Y-71000000D03*
X155000000Y-74000000D03*
X134500000Y-86500000D03*
X148500000Y-101000000D03*
X121600000Y-83500000D03*
X114500000Y-70000000D03*
X142500000Y-91000000D03*
X148500000Y-78000000D03*
X98500000Y-99400000D03*
%TO.N,VBUS*%
X130100000Y-67000000D03*
X125000000Y-74500000D03*
X124500000Y-83500000D03*
%TO.N,Net-(J3-CC2)*%
X129400000Y-73600000D03*
%TO.N,/SDA*%
X126500000Y-75500000D03*
X156500000Y-75000000D03*
X164000000Y-87900000D03*
%TO.N,/SCL*%
X126500000Y-76500000D03*
X159500000Y-75000000D03*
X163400000Y-85200000D03*
%TO.N,/SCK*%
X165200000Y-96500000D03*
X159400000Y-101300000D03*
%TO.N,/SX_MOSI*%
X185250000Y-83050000D03*
X149800000Y-78000000D03*
%TO.N,Net-(U8-EN)*%
X159900000Y-77900000D03*
%TO.N,/IRQ*%
X185300000Y-85200000D03*
X185200000Y-77900000D03*
%TO.N,/LED*%
X195700000Y-98400000D03*
X154500000Y-99100000D03*
%TO.N,/GNSS_RX*%
X211800000Y-78000000D03*
X156100000Y-99000000D03*
%TD*%
D28*
%TO.N,/USB_DN*%
X133414895Y-68982843D02*
X136266026Y-71833974D01*
X133317157Y-68982843D02*
X133414895Y-68982843D01*
D29*
%TO.N,VBUS*%
X128867098Y-70632902D02*
X125000000Y-74500000D01*
X128867098Y-68232902D02*
X128867098Y-70632902D01*
X128879000Y-68221000D02*
X128867098Y-68232902D01*
X128879000Y-67737504D02*
X128879000Y-68221000D01*
X129377504Y-67239000D02*
X128879000Y-67737504D01*
X129861000Y-67239000D02*
X129377504Y-67239000D01*
X130100000Y-67000000D02*
X129861000Y-67239000D01*
D30*
X124500000Y-75000000D02*
X125000000Y-74500000D01*
X124500000Y-83500000D02*
X124500000Y-75000000D01*
D29*
%TO.N,/SDA*%
X164000000Y-78650057D02*
X159748943Y-74399000D01*
X126500000Y-75500000D02*
X156000000Y-75500000D01*
X156000000Y-75500000D02*
X156500000Y-75000000D01*
X157101000Y-74399000D02*
X156500000Y-75000000D01*
X164000000Y-87900000D02*
X164000000Y-78650057D01*
X159748943Y-74399000D02*
X157101000Y-74399000D01*
%TO.N,/SCL*%
X158000000Y-76500000D02*
X159500000Y-75000000D01*
X163400000Y-78900000D02*
X159500000Y-75000000D01*
X163400000Y-85200000D02*
X163400000Y-78900000D01*
X126500000Y-76500000D02*
X158000000Y-76500000D01*
%TO.N,/SCK*%
X164200000Y-96500000D02*
X159400000Y-101300000D01*
X165200000Y-96500000D02*
X164200000Y-96500000D01*
%TO.N,/SX_MOSI*%
X149800000Y-81700000D02*
X149800000Y-78000000D01*
X185250000Y-83050000D02*
X178100000Y-90200000D01*
X178100000Y-90200000D02*
X158300000Y-90200000D01*
X158300000Y-90200000D02*
X149800000Y-81700000D01*
%TO.N,Net-(U8-EN)*%
X159900000Y-77900000D02*
X159400000Y-77400000D01*
X143300000Y-98000000D02*
X140900000Y-100400000D01*
X147300000Y-77400000D02*
X143300000Y-81400000D01*
X159400000Y-77400000D02*
X147300000Y-77400000D01*
X143300000Y-81400000D02*
X143300000Y-98000000D01*
%TO.N,/IRQ*%
X185900000Y-84600000D02*
X185900000Y-78600000D01*
X185900000Y-78600000D02*
X185200000Y-77900000D01*
X185300000Y-85200000D02*
X185900000Y-84600000D01*
%TO.N,/LED*%
X189000000Y-105100000D02*
X164300000Y-105100000D01*
X195700000Y-98400000D02*
X189000000Y-105100000D01*
X164300000Y-105100000D02*
X160500000Y-105100000D01*
X160500000Y-105100000D02*
X154500000Y-99100000D01*
%TO.N,/GNSS_RX*%
X186100000Y-103700000D02*
X171900000Y-103700000D01*
X160800000Y-103700000D02*
X156100000Y-99000000D01*
X171900000Y-103700000D02*
X160800000Y-103700000D01*
X211800000Y-78000000D02*
X186100000Y-103700000D01*
%TO.N,Net-(J3-CC2)*%
X129400000Y-73600000D02*
X129175000Y-73600000D01*
X127875000Y-74900000D02*
X127014068Y-74900000D01*
X129175000Y-73600000D02*
X127875000Y-74900000D01*
%TD*%
%TA.AperFunction,Conductor*%
%TO.N,GND*%
G36*
X254471780Y-60518482D02*
G01*
X254498800Y-60565282D01*
X254500000Y-60579000D01*
X254500000Y-109421000D01*
X254481518Y-109471780D01*
X254434718Y-109498800D01*
X254421000Y-109500000D01*
X85079000Y-109500000D01*
X85028220Y-109481518D01*
X85001200Y-109434718D01*
X85000000Y-109421000D01*
X85000000Y-106522652D01*
X89312000Y-106522652D01*
X89312000Y-106727347D01*
X89312001Y-106727363D01*
X89344020Y-106929523D01*
X89344025Y-106929542D01*
X89407279Y-107124216D01*
X89407284Y-107124229D01*
X89482808Y-107272451D01*
X89500213Y-107306610D01*
X89620534Y-107472219D01*
X89620538Y-107472223D01*
X89620543Y-107472229D01*
X89765270Y-107616956D01*
X89765276Y-107616961D01*
X89765281Y-107616966D01*
X89930890Y-107737287D01*
X90012561Y-107778900D01*
X90113270Y-107830215D01*
X90113274Y-107830216D01*
X90113281Y-107830220D01*
X90307966Y-107893477D01*
X90307972Y-107893477D01*
X90307976Y-107893479D01*
X90471171Y-107919326D01*
X90510148Y-107925500D01*
X90510153Y-107925500D01*
X90714847Y-107925500D01*
X90714852Y-107925500D01*
X90815943Y-107909488D01*
X90917023Y-107893479D01*
X90917025Y-107893478D01*
X90917034Y-107893477D01*
X91111719Y-107830220D01*
X91294110Y-107737287D01*
X91459719Y-107616966D01*
X91604466Y-107472219D01*
X91721289Y-107311425D01*
X133524500Y-107311425D01*
X133524500Y-107488574D01*
X133524501Y-107488588D01*
X133552212Y-107663546D01*
X133552217Y-107663567D01*
X133606955Y-107832036D01*
X133606962Y-107832052D01*
X133654576Y-107925498D01*
X133687386Y-107989890D01*
X133791517Y-108133214D01*
X133791521Y-108133218D01*
X133791526Y-108133224D01*
X133916775Y-108258473D01*
X133916781Y-108258478D01*
X133916786Y-108258483D01*
X134060110Y-108362614D01*
X134130789Y-108398627D01*
X134217947Y-108443037D01*
X134217963Y-108443044D01*
X134386432Y-108497782D01*
X134386434Y-108497782D01*
X134386445Y-108497786D01*
X134561421Y-108525500D01*
X134561426Y-108525500D01*
X134738574Y-108525500D01*
X134738579Y-108525500D01*
X134913555Y-108497786D01*
X135082042Y-108443042D01*
X135239890Y-108362614D01*
X135383214Y-108258483D01*
X135508483Y-108133214D01*
X135612614Y-107989890D01*
X135693042Y-107832042D01*
X135747786Y-107663555D01*
X135775500Y-107488579D01*
X135775500Y-107311421D01*
X135747786Y-107136445D01*
X135747782Y-107136432D01*
X135693044Y-106967963D01*
X135693037Y-106967947D01*
X135612613Y-106810109D01*
X135612609Y-106810103D01*
X135508488Y-106666793D01*
X135508483Y-106666786D01*
X135508478Y-106666781D01*
X135508473Y-106666775D01*
X135383224Y-106541526D01*
X135383218Y-106541521D01*
X135383214Y-106541517D01*
X135293971Y-106476678D01*
X135239896Y-106437390D01*
X135239890Y-106437386D01*
X135082052Y-106356962D01*
X135082036Y-106356955D01*
X134913567Y-106302217D01*
X134913556Y-106302214D01*
X134913555Y-106302214D01*
X134913553Y-106302213D01*
X134913546Y-106302212D01*
X134738588Y-106274501D01*
X134738583Y-106274500D01*
X134738579Y-106274500D01*
X134561421Y-106274500D01*
X134561417Y-106274500D01*
X134561411Y-106274501D01*
X134386453Y-106302212D01*
X134386432Y-106302217D01*
X134217963Y-106356955D01*
X134217947Y-106356962D01*
X134060109Y-106437386D01*
X134060103Y-106437390D01*
X133916793Y-106541511D01*
X133916775Y-106541526D01*
X133791526Y-106666775D01*
X133791511Y-106666793D01*
X133687390Y-106810103D01*
X133687386Y-106810109D01*
X133606962Y-106967947D01*
X133606955Y-106967963D01*
X133552217Y-107136432D01*
X133552212Y-107136453D01*
X133524501Y-107311411D01*
X133524500Y-107311425D01*
X91721289Y-107311425D01*
X91724787Y-107306610D01*
X91771873Y-107214197D01*
X91817713Y-107124234D01*
X91817715Y-107124228D01*
X91817720Y-107124219D01*
X91880977Y-106929534D01*
X91913000Y-106727352D01*
X91913000Y-106522648D01*
X91905719Y-106476677D01*
X91902908Y-106458927D01*
X91880979Y-106320476D01*
X91880977Y-106320472D01*
X91880977Y-106320466D01*
X91817720Y-106125781D01*
X91817716Y-106125774D01*
X91817715Y-106125770D01*
X91754131Y-106000981D01*
X91724787Y-105943390D01*
X91604466Y-105777781D01*
X91604461Y-105777776D01*
X91604456Y-105777770D01*
X91459729Y-105633043D01*
X91459723Y-105633038D01*
X91459719Y-105633034D01*
X91459711Y-105633028D01*
X91294116Y-105512717D01*
X91294110Y-105512713D01*
X91111729Y-105419784D01*
X91111716Y-105419779D01*
X90933421Y-105361847D01*
X90917043Y-105356525D01*
X90917023Y-105356520D01*
X90714863Y-105324501D01*
X90714855Y-105324500D01*
X90714852Y-105324500D01*
X90510148Y-105324500D01*
X90510145Y-105324500D01*
X90510136Y-105324501D01*
X90307976Y-105356520D01*
X90307957Y-105356525D01*
X90113283Y-105419779D01*
X90113270Y-105419784D01*
X89930889Y-105512713D01*
X89930883Y-105512717D01*
X89765288Y-105633028D01*
X89765270Y-105633043D01*
X89620543Y-105777770D01*
X89620528Y-105777788D01*
X89500217Y-105943383D01*
X89500213Y-105943389D01*
X89407284Y-106125770D01*
X89407279Y-106125783D01*
X89344025Y-106320457D01*
X89344020Y-106320476D01*
X89312001Y-106522636D01*
X89312000Y-106522652D01*
X85000000Y-106522652D01*
X85000000Y-105182530D01*
X86937500Y-105182530D01*
X86937500Y-105367469D01*
X86937501Y-105367483D01*
X86966431Y-105550137D01*
X86966436Y-105550158D01*
X87023582Y-105726037D01*
X87023591Y-105726058D01*
X87107547Y-105890829D01*
X87107549Y-105890832D01*
X87196903Y-106013819D01*
X87685430Y-105525292D01*
X87716402Y-105578937D01*
X87808563Y-105671098D01*
X87862205Y-105702068D01*
X87373679Y-106190595D01*
X87373679Y-106190596D01*
X87496659Y-106279945D01*
X87496670Y-106279952D01*
X87661441Y-106363908D01*
X87661462Y-106363917D01*
X87837341Y-106421063D01*
X87837362Y-106421068D01*
X88020016Y-106449998D01*
X88020031Y-106450000D01*
X88204969Y-106450000D01*
X88204983Y-106449998D01*
X88258535Y-106441517D01*
X88387637Y-106421068D01*
X88387658Y-106421063D01*
X88563537Y-106363917D01*
X88563558Y-106363908D01*
X88728329Y-106279952D01*
X88728340Y-106279945D01*
X88851319Y-106190595D01*
X88362793Y-105702069D01*
X88416437Y-105671098D01*
X88508598Y-105578937D01*
X88539569Y-105525293D01*
X89028095Y-106013819D01*
X89117445Y-105890840D01*
X89117452Y-105890829D01*
X89201408Y-105726058D01*
X89201417Y-105726037D01*
X89258563Y-105550158D01*
X89258568Y-105550137D01*
X89287498Y-105367483D01*
X89287500Y-105367469D01*
X89287500Y-105289822D01*
X127000000Y-105289822D01*
X127000000Y-105510177D01*
X127000001Y-105510193D01*
X127034470Y-105727823D01*
X127034476Y-105727846D01*
X127102566Y-105937407D01*
X127102573Y-105937423D01*
X127202613Y-106133760D01*
X127202617Y-106133766D01*
X127323320Y-106299901D01*
X127323321Y-106299901D01*
X127878593Y-105744629D01*
X127914531Y-105798414D01*
X128001586Y-105885469D01*
X128055368Y-105921405D01*
X127500097Y-106476677D01*
X127500097Y-106476678D01*
X127666233Y-106597382D01*
X127666239Y-106597386D01*
X127862576Y-106697426D01*
X127862592Y-106697433D01*
X128072153Y-106765523D01*
X128072176Y-106765529D01*
X128289806Y-106799998D01*
X128289823Y-106800000D01*
X128510177Y-106800000D01*
X128510193Y-106799998D01*
X128727823Y-106765529D01*
X128727846Y-106765523D01*
X128937407Y-106697433D01*
X128937423Y-106697426D01*
X129133760Y-106597386D01*
X129133766Y-106597382D01*
X129299901Y-106476677D01*
X128744630Y-105921406D01*
X128798414Y-105885469D01*
X128885469Y-105798414D01*
X128921406Y-105744630D01*
X129476677Y-106299901D01*
X129597382Y-106133766D01*
X129597386Y-106133760D01*
X129697426Y-105937423D01*
X129697433Y-105937407D01*
X129765523Y-105727846D01*
X129765529Y-105727823D01*
X129799998Y-105510193D01*
X129800000Y-105510177D01*
X129800000Y-105289822D01*
X139500000Y-105289822D01*
X139500000Y-105510177D01*
X139500001Y-105510193D01*
X139534470Y-105727823D01*
X139534476Y-105727846D01*
X139602566Y-105937407D01*
X139602573Y-105937423D01*
X139702613Y-106133760D01*
X139702617Y-106133766D01*
X139823320Y-106299901D01*
X139823321Y-106299901D01*
X140378593Y-105744629D01*
X140414531Y-105798414D01*
X140501586Y-105885469D01*
X140555368Y-105921405D01*
X140000097Y-106476677D01*
X140000097Y-106476678D01*
X140166233Y-106597382D01*
X140166239Y-106597386D01*
X140362576Y-106697426D01*
X140362592Y-106697433D01*
X140572153Y-106765523D01*
X140572176Y-106765529D01*
X140789806Y-106799998D01*
X140789823Y-106800000D01*
X141010177Y-106800000D01*
X141010193Y-106799998D01*
X141227823Y-106765529D01*
X141227846Y-106765523D01*
X141437407Y-106697433D01*
X141437423Y-106697426D01*
X141633760Y-106597386D01*
X141633766Y-106597382D01*
X141799901Y-106476677D01*
X141244630Y-105921406D01*
X141298414Y-105885469D01*
X141385469Y-105798414D01*
X141421406Y-105744630D01*
X141976677Y-106299901D01*
X142097382Y-106133766D01*
X142097386Y-106133760D01*
X142197426Y-105937423D01*
X142197433Y-105937407D01*
X142265523Y-105727846D01*
X142265529Y-105727823D01*
X142299998Y-105510193D01*
X142300000Y-105510177D01*
X142300000Y-105289822D01*
X142299998Y-105289806D01*
X142265529Y-105072176D01*
X142265523Y-105072153D01*
X142197433Y-104862592D01*
X142197426Y-104862576D01*
X142097386Y-104666239D01*
X142097382Y-104666233D01*
X141976678Y-104500097D01*
X141976677Y-104500097D01*
X141421405Y-105055368D01*
X141385469Y-105001586D01*
X141298414Y-104914531D01*
X141244629Y-104878593D01*
X141799901Y-104323321D01*
X141799901Y-104323320D01*
X141633766Y-104202617D01*
X141633760Y-104202613D01*
X141437423Y-104102573D01*
X141437407Y-104102566D01*
X141227846Y-104034476D01*
X141227823Y-104034470D01*
X141010193Y-104000001D01*
X141010177Y-104000000D01*
X140789823Y-104000000D01*
X140789806Y-104000001D01*
X140572176Y-104034470D01*
X140572153Y-104034476D01*
X140362592Y-104102566D01*
X140362576Y-104102573D01*
X140166240Y-104202612D01*
X140000097Y-104323321D01*
X140555369Y-104878593D01*
X140501586Y-104914531D01*
X140414531Y-105001586D01*
X140378593Y-105055369D01*
X139823321Y-104500097D01*
X139702612Y-104666240D01*
X139602573Y-104862576D01*
X139602566Y-104862592D01*
X139534476Y-105072153D01*
X139534470Y-105072176D01*
X139500001Y-105289806D01*
X139500000Y-105289822D01*
X129800000Y-105289822D01*
X129799998Y-105289806D01*
X129765529Y-105072176D01*
X129765523Y-105072153D01*
X129697433Y-104862592D01*
X129697426Y-104862576D01*
X129597386Y-104666239D01*
X129597382Y-104666233D01*
X129476678Y-104500097D01*
X129476677Y-104500097D01*
X128921405Y-105055368D01*
X128885469Y-105001586D01*
X128798414Y-104914531D01*
X128744629Y-104878593D01*
X129299901Y-104323321D01*
X129299901Y-104323320D01*
X129133766Y-104202617D01*
X129133760Y-104202613D01*
X128937423Y-104102573D01*
X128937407Y-104102566D01*
X128727846Y-104034476D01*
X128727823Y-104034470D01*
X128510193Y-104000001D01*
X128510177Y-104000000D01*
X128289823Y-104000000D01*
X128289806Y-104000001D01*
X128072176Y-104034470D01*
X128072153Y-104034476D01*
X127862592Y-104102566D01*
X127862576Y-104102573D01*
X127666240Y-104202612D01*
X127500097Y-104323321D01*
X128055369Y-104878593D01*
X128001586Y-104914531D01*
X127914531Y-105001586D01*
X127878593Y-105055369D01*
X127323321Y-104500097D01*
X127202612Y-104666240D01*
X127102573Y-104862576D01*
X127102566Y-104862592D01*
X127034476Y-105072153D01*
X127034470Y-105072176D01*
X127000001Y-105289806D01*
X127000000Y-105289822D01*
X89287500Y-105289822D01*
X89287500Y-105182530D01*
X89287498Y-105182516D01*
X89258568Y-104999862D01*
X89258563Y-104999841D01*
X89201417Y-104823962D01*
X89201408Y-104823941D01*
X89117452Y-104659170D01*
X89117445Y-104659159D01*
X89028095Y-104536179D01*
X88539568Y-105024705D01*
X88508598Y-104971063D01*
X88416437Y-104878902D01*
X88362792Y-104847930D01*
X88851318Y-104359404D01*
X88851318Y-104359402D01*
X88728332Y-104270049D01*
X88728329Y-104270047D01*
X88563558Y-104186091D01*
X88563537Y-104186082D01*
X88387658Y-104128936D01*
X88387637Y-104128931D01*
X88204983Y-104100001D01*
X88204969Y-104100000D01*
X88020031Y-104100000D01*
X88020016Y-104100001D01*
X87837362Y-104128931D01*
X87837341Y-104128936D01*
X87661462Y-104186082D01*
X87661441Y-104186091D01*
X87496670Y-104270047D01*
X87496667Y-104270049D01*
X87373679Y-104359403D01*
X87862206Y-104847930D01*
X87808563Y-104878902D01*
X87716402Y-104971063D01*
X87685430Y-105024706D01*
X87196903Y-104536179D01*
X87107549Y-104659167D01*
X87107547Y-104659170D01*
X87023591Y-104823941D01*
X87023582Y-104823962D01*
X86966436Y-104999841D01*
X86966431Y-104999862D01*
X86937501Y-105182516D01*
X86937500Y-105182530D01*
X85000000Y-105182530D01*
X85000000Y-100686425D01*
X86987000Y-100686425D01*
X86987000Y-100863574D01*
X86987001Y-100863588D01*
X87014712Y-101038546D01*
X87014717Y-101038567D01*
X87069455Y-101207036D01*
X87069462Y-101207052D01*
X87149886Y-101364890D01*
X87149890Y-101364896D01*
X87197270Y-101430109D01*
X87254017Y-101508214D01*
X87254021Y-101508218D01*
X87254026Y-101508224D01*
X87379275Y-101633473D01*
X87379281Y-101633478D01*
X87379286Y-101633483D01*
X87522610Y-101737614D01*
X87593289Y-101773627D01*
X87680447Y-101818037D01*
X87680463Y-101818044D01*
X87848932Y-101872782D01*
X87848934Y-101872782D01*
X87848945Y-101872786D01*
X88023921Y-101900500D01*
X88023926Y-101900500D01*
X88201074Y-101900500D01*
X88201079Y-101900500D01*
X88376055Y-101872786D01*
X88544542Y-101818042D01*
X88702390Y-101737614D01*
X88845714Y-101633483D01*
X88970983Y-101508214D01*
X89075114Y-101364890D01*
X89155542Y-101207042D01*
X89210286Y-101038555D01*
X89238000Y-100863579D01*
X89238000Y-100686421D01*
X89210286Y-100511445D01*
X89208610Y-100506287D01*
X89155544Y-100342963D01*
X89155537Y-100342947D01*
X89104127Y-100242051D01*
X89075114Y-100185110D01*
X89061687Y-100166630D01*
X88970988Y-100041793D01*
X88970983Y-100041786D01*
X88970978Y-100041781D01*
X88970973Y-100041775D01*
X88845724Y-99916526D01*
X88845718Y-99916521D01*
X88845714Y-99916517D01*
X88797641Y-99881590D01*
X88702396Y-99812390D01*
X88702390Y-99812386D01*
X88544552Y-99731962D01*
X88544536Y-99731955D01*
X88376067Y-99677217D01*
X88376056Y-99677214D01*
X88376055Y-99677214D01*
X88376053Y-99677213D01*
X88376046Y-99677212D01*
X88201088Y-99649501D01*
X88201083Y-99649500D01*
X88201079Y-99649500D01*
X88023921Y-99649500D01*
X88023917Y-99649500D01*
X88023911Y-99649501D01*
X87848953Y-99677212D01*
X87848932Y-99677217D01*
X87680463Y-99731955D01*
X87680447Y-99731962D01*
X87522609Y-99812386D01*
X87522603Y-99812390D01*
X87379293Y-99916511D01*
X87379275Y-99916526D01*
X87254026Y-100041775D01*
X87254011Y-100041793D01*
X87149890Y-100185103D01*
X87149886Y-100185109D01*
X87069462Y-100342947D01*
X87069455Y-100342963D01*
X87014717Y-100511432D01*
X87014712Y-100511453D01*
X86987001Y-100686411D01*
X86987000Y-100686425D01*
X85000000Y-100686425D01*
X85000000Y-99322652D01*
X89312000Y-99322652D01*
X89312000Y-99527347D01*
X89312001Y-99527363D01*
X89344020Y-99729523D01*
X89344025Y-99729542D01*
X89407279Y-99924216D01*
X89407284Y-99924229D01*
X89500213Y-100106610D01*
X89500217Y-100106616D01*
X89543821Y-100166632D01*
X89620534Y-100272219D01*
X89620538Y-100272223D01*
X89620543Y-100272229D01*
X89765270Y-100416956D01*
X89765276Y-100416961D01*
X89765281Y-100416966D01*
X89930890Y-100537287D01*
X90012561Y-100578900D01*
X90113270Y-100630215D01*
X90113274Y-100630216D01*
X90113281Y-100630220D01*
X90307966Y-100693477D01*
X90307972Y-100693477D01*
X90307976Y-100693479D01*
X90451753Y-100716251D01*
X90510148Y-100725500D01*
X90510153Y-100725500D01*
X90714847Y-100725500D01*
X90714852Y-100725500D01*
X90815943Y-100709488D01*
X90917023Y-100693479D01*
X90917025Y-100693478D01*
X90917034Y-100693477D01*
X91111719Y-100630220D01*
X91294110Y-100537287D01*
X91459719Y-100416966D01*
X91604466Y-100272219D01*
X91724787Y-100106610D01*
X91817720Y-99924219D01*
X91880977Y-99729534D01*
X91881810Y-99724278D01*
X91906406Y-99568982D01*
X91913000Y-99527352D01*
X91913000Y-99322648D01*
X91906848Y-99283804D01*
X91906848Y-99283803D01*
X91905505Y-99275326D01*
X127049500Y-99275326D01*
X127049500Y-101524673D01*
X127064033Y-101597738D01*
X127064034Y-101597740D01*
X127086209Y-101630928D01*
X127119398Y-101680601D01*
X127152587Y-101702776D01*
X127202260Y-101735966D01*
X127275326Y-101750500D01*
X129524674Y-101750500D01*
X129597740Y-101735966D01*
X129680601Y-101680601D01*
X129735966Y-101597740D01*
X129750500Y-101524674D01*
X129750500Y-100293717D01*
X139549500Y-100293717D01*
X139549500Y-100506282D01*
X139549501Y-100506298D01*
X139582751Y-100716232D01*
X139582756Y-100716251D01*
X139648442Y-100918409D01*
X139648449Y-100918427D01*
X139744946Y-101107811D01*
X139744953Y-101107822D01*
X139851025Y-101253818D01*
X139869896Y-101279792D01*
X139869900Y-101279796D01*
X139869905Y-101279802D01*
X140020197Y-101430094D01*
X140020203Y-101430099D01*
X140020208Y-101430104D01*
X140020215Y-101430109D01*
X140133596Y-101512485D01*
X140192184Y-101555051D01*
X140192188Y-101555053D01*
X140381572Y-101651550D01*
X140381581Y-101651553D01*
X140381588Y-101651557D01*
X140583757Y-101717246D01*
X140583763Y-101717246D01*
X140583767Y-101717248D01*
X140753233Y-101744088D01*
X140793713Y-101750500D01*
X140793718Y-101750500D01*
X141006282Y-101750500D01*
X141006287Y-101750500D01*
X141111265Y-101733873D01*
X141216232Y-101717248D01*
X141216234Y-101717247D01*
X141216243Y-101717246D01*
X141418412Y-101651557D01*
X141418421Y-101651552D01*
X141418427Y-101651550D01*
X141524038Y-101597738D01*
X141607816Y-101555051D01*
X141779792Y-101430104D01*
X141930104Y-101279792D01*
X142055051Y-101107816D01*
X142099441Y-101020694D01*
X142151550Y-100918427D01*
X142151552Y-100918421D01*
X142151557Y-100918412D01*
X142217246Y-100716243D01*
X142220852Y-100693479D01*
X142250498Y-100506298D01*
X142250500Y-100506287D01*
X142250500Y-100293713D01*
X142244088Y-100253233D01*
X142217248Y-100083767D01*
X142217246Y-100083763D01*
X142217246Y-100083757D01*
X142151557Y-99881588D01*
X142151553Y-99881581D01*
X142151552Y-99881577D01*
X142128595Y-99836524D01*
X142097459Y-99775416D01*
X142090874Y-99721783D01*
X142111986Y-99683694D01*
X142768157Y-99027524D01*
X153949500Y-99027524D01*
X153949500Y-99172475D01*
X153987015Y-99312484D01*
X153987016Y-99312486D01*
X154059492Y-99438017D01*
X154161982Y-99540507D01*
X154161984Y-99540508D01*
X154161985Y-99540509D01*
X154287515Y-99612984D01*
X154427525Y-99650500D01*
X154522096Y-99650500D01*
X154572876Y-99668982D01*
X154577957Y-99673639D01*
X160219531Y-105315212D01*
X160260839Y-105356520D01*
X160284789Y-105380470D01*
X160352875Y-105419780D01*
X160364712Y-105426614D01*
X160453856Y-105450500D01*
X160453858Y-105450500D01*
X189046142Y-105450500D01*
X189046144Y-105450500D01*
X189135288Y-105426614D01*
X189147125Y-105419780D01*
X189215212Y-105380470D01*
X195622043Y-98973639D01*
X195671019Y-98950801D01*
X195677904Y-98950500D01*
X195772473Y-98950500D01*
X195772475Y-98950500D01*
X195912485Y-98912984D01*
X196038015Y-98840509D01*
X196140509Y-98738015D01*
X196212984Y-98612485D01*
X196250500Y-98472475D01*
X196250500Y-98327525D01*
X196212984Y-98187515D01*
X196140509Y-98061985D01*
X196140508Y-98061984D01*
X196140507Y-98061982D01*
X196038017Y-97959492D01*
X195912486Y-97887016D01*
X195912484Y-97887015D01*
X195772475Y-97849500D01*
X195627525Y-97849500D01*
X195627524Y-97849500D01*
X195487515Y-97887015D01*
X195487513Y-97887016D01*
X195361982Y-97959492D01*
X195259492Y-98061982D01*
X195187016Y-98187513D01*
X195187015Y-98187515D01*
X195149500Y-98327524D01*
X195149500Y-98422096D01*
X195131018Y-98472876D01*
X195126361Y-98477957D01*
X188877957Y-104726361D01*
X188828981Y-104749199D01*
X188822096Y-104749500D01*
X160677903Y-104749500D01*
X160627123Y-104731018D01*
X160622042Y-104726361D01*
X155073639Y-99177957D01*
X155050801Y-99128981D01*
X155050500Y-99122096D01*
X155050500Y-99027527D01*
X155050500Y-99027525D01*
X155023705Y-98927524D01*
X155549500Y-98927524D01*
X155549500Y-99072475D01*
X155587015Y-99212484D01*
X155587016Y-99212486D01*
X155659492Y-99338017D01*
X155761982Y-99440507D01*
X155761984Y-99440508D01*
X155761985Y-99440509D01*
X155887515Y-99512984D01*
X156027525Y-99550500D01*
X156122096Y-99550500D01*
X156172876Y-99568982D01*
X156177957Y-99573639D01*
X160584785Y-103980468D01*
X160584787Y-103980469D01*
X160584788Y-103980470D01*
X160664712Y-104026614D01*
X160753856Y-104050500D01*
X160753857Y-104050500D01*
X160753858Y-104050500D01*
X186146142Y-104050500D01*
X186146144Y-104050500D01*
X186235288Y-104026614D01*
X186315212Y-103980470D01*
X198093555Y-92202127D01*
X236199500Y-92202127D01*
X236199500Y-93497879D01*
X236205908Y-93557479D01*
X236205909Y-93557485D01*
X236256202Y-93692329D01*
X236256205Y-93692334D01*
X236342453Y-93807546D01*
X236457665Y-93893794D01*
X236457670Y-93893797D01*
X236588790Y-93942701D01*
X236592517Y-93944091D01*
X236652127Y-93950500D01*
X238247872Y-93950499D01*
X238247879Y-93950499D01*
X238285806Y-93946421D01*
X238307483Y-93944091D01*
X238403806Y-93908165D01*
X238442329Y-93893797D01*
X238442334Y-93893794D01*
X238557546Y-93807546D01*
X238643794Y-93692334D01*
X238643797Y-93692329D01*
X238680762Y-93593219D01*
X238694091Y-93557483D01*
X238700500Y-93497873D01*
X238700499Y-92202128D01*
X238700499Y-92202127D01*
X238700499Y-92202120D01*
X238694091Y-92142520D01*
X238694090Y-92142514D01*
X238643797Y-92007670D01*
X238643794Y-92007665D01*
X238557546Y-91892453D01*
X238442334Y-91806205D01*
X238442329Y-91806202D01*
X238307482Y-91755908D01*
X238254281Y-91750188D01*
X238247873Y-91749500D01*
X238247872Y-91749500D01*
X236652120Y-91749500D01*
X236592520Y-91755908D01*
X236592514Y-91755909D01*
X236457670Y-91806202D01*
X236457665Y-91806205D01*
X236342453Y-91892453D01*
X236256205Y-92007665D01*
X236256202Y-92007670D01*
X236205908Y-92142517D01*
X236205908Y-92142518D01*
X236199500Y-92202127D01*
X198093555Y-92202127D01*
X200070682Y-90225000D01*
X236155463Y-90225000D01*
X236965856Y-90225000D01*
X236950000Y-90284174D01*
X236950000Y-90415826D01*
X236965856Y-90475000D01*
X236155463Y-90475000D01*
X236178315Y-90619283D01*
X236178320Y-90619304D01*
X236234250Y-90791441D01*
X236234257Y-90791457D01*
X236316432Y-90952731D01*
X236316436Y-90952737D01*
X236422823Y-91099167D01*
X236422838Y-91099185D01*
X236550814Y-91227161D01*
X236550832Y-91227176D01*
X236697262Y-91333563D01*
X236697268Y-91333567D01*
X236858542Y-91415742D01*
X236858558Y-91415749D01*
X237030695Y-91471679D01*
X237030718Y-91471685D01*
X237209481Y-91499998D01*
X237209498Y-91500000D01*
X237325000Y-91500000D01*
X237325000Y-90834144D01*
X237384174Y-90850000D01*
X237515826Y-90850000D01*
X237575000Y-90834144D01*
X237575000Y-91500000D01*
X237690502Y-91500000D01*
X237690518Y-91499998D01*
X237869281Y-91471685D01*
X237869304Y-91471679D01*
X238041441Y-91415749D01*
X238041457Y-91415742D01*
X238202731Y-91333567D01*
X238202737Y-91333563D01*
X238349167Y-91227176D01*
X238349185Y-91227161D01*
X238477161Y-91099185D01*
X238477176Y-91099167D01*
X238583563Y-90952737D01*
X238583567Y-90952731D01*
X238665742Y-90791457D01*
X238665749Y-90791441D01*
X238721679Y-90619304D01*
X238721684Y-90619283D01*
X238744537Y-90475000D01*
X237934144Y-90475000D01*
X237950000Y-90415826D01*
X237950000Y-90284174D01*
X237934144Y-90225000D01*
X238744537Y-90225000D01*
X238721684Y-90080716D01*
X238721679Y-90080695D01*
X238665749Y-89908558D01*
X238665742Y-89908542D01*
X238583567Y-89747268D01*
X238583563Y-89747262D01*
X238477176Y-89600832D01*
X238477161Y-89600814D01*
X238349185Y-89472838D01*
X238349167Y-89472823D01*
X238202737Y-89366436D01*
X238202731Y-89366432D01*
X238041457Y-89284257D01*
X238041441Y-89284250D01*
X237869304Y-89228320D01*
X237869281Y-89228314D01*
X237690518Y-89200001D01*
X237690502Y-89200000D01*
X237575000Y-89200000D01*
X237575000Y-89865855D01*
X237515826Y-89850000D01*
X237384174Y-89850000D01*
X237325000Y-89865855D01*
X237325000Y-89200000D01*
X237209498Y-89200000D01*
X237209481Y-89200001D01*
X237030718Y-89228314D01*
X237030695Y-89228320D01*
X236858558Y-89284250D01*
X236858542Y-89284257D01*
X236697268Y-89366432D01*
X236697262Y-89366436D01*
X236550832Y-89472823D01*
X236550814Y-89472838D01*
X236422838Y-89600814D01*
X236422823Y-89600832D01*
X236316436Y-89747262D01*
X236316432Y-89747268D01*
X236234257Y-89908542D01*
X236234250Y-89908558D01*
X236178320Y-90080695D01*
X236178315Y-90080716D01*
X236155463Y-90225000D01*
X200070682Y-90225000D01*
X208793555Y-81502127D01*
X236204500Y-81502127D01*
X236204500Y-82797879D01*
X236210908Y-82857479D01*
X236210909Y-82857485D01*
X236261202Y-82992329D01*
X236261205Y-82992334D01*
X236347453Y-83107546D01*
X236462665Y-83193794D01*
X236462670Y-83193797D01*
X236597514Y-83244090D01*
X236597517Y-83244091D01*
X236657127Y-83250500D01*
X238252872Y-83250499D01*
X238252879Y-83250499D01*
X238290806Y-83246421D01*
X238312483Y-83244091D01*
X238437076Y-83197621D01*
X238447329Y-83193797D01*
X238447334Y-83193794D01*
X238562546Y-83107546D01*
X238648794Y-82992334D01*
X238648797Y-82992329D01*
X238699091Y-82857482D01*
X238699091Y-82857481D01*
X238699091Y-82857479D01*
X238705500Y-82797873D01*
X238705499Y-81502128D01*
X238705499Y-81502127D01*
X238705499Y-81502120D01*
X238699091Y-81442520D01*
X238699090Y-81442514D01*
X238648797Y-81307670D01*
X238648794Y-81307665D01*
X238562546Y-81192453D01*
X238447334Y-81106205D01*
X238447329Y-81106202D01*
X238312482Y-81055908D01*
X238259281Y-81050188D01*
X238252873Y-81049500D01*
X238252872Y-81049500D01*
X236657120Y-81049500D01*
X236597520Y-81055908D01*
X236597514Y-81055909D01*
X236462670Y-81106202D01*
X236462665Y-81106205D01*
X236347453Y-81192453D01*
X236261205Y-81307665D01*
X236261202Y-81307670D01*
X236210908Y-81442517D01*
X236210908Y-81442518D01*
X236204500Y-81502127D01*
X208793555Y-81502127D01*
X210770682Y-79525000D01*
X236160463Y-79525000D01*
X236970856Y-79525000D01*
X236955000Y-79584174D01*
X236955000Y-79715826D01*
X236970856Y-79775000D01*
X236160463Y-79775000D01*
X236183315Y-79919283D01*
X236183320Y-79919304D01*
X236239250Y-80091441D01*
X236239257Y-80091457D01*
X236321432Y-80252731D01*
X236321436Y-80252737D01*
X236427823Y-80399167D01*
X236427838Y-80399185D01*
X236555814Y-80527161D01*
X236555832Y-80527176D01*
X236702262Y-80633563D01*
X236702268Y-80633567D01*
X236863542Y-80715742D01*
X236863558Y-80715749D01*
X237035695Y-80771679D01*
X237035718Y-80771685D01*
X237214481Y-80799998D01*
X237214498Y-80800000D01*
X237330000Y-80800000D01*
X237330000Y-80134144D01*
X237389174Y-80150000D01*
X237520826Y-80150000D01*
X237580000Y-80134144D01*
X237580000Y-80800000D01*
X237695502Y-80800000D01*
X237695518Y-80799998D01*
X237874281Y-80771685D01*
X237874304Y-80771679D01*
X238046441Y-80715749D01*
X238046457Y-80715742D01*
X238207731Y-80633567D01*
X238207737Y-80633563D01*
X238354167Y-80527176D01*
X238354185Y-80527161D01*
X238482161Y-80399185D01*
X238482176Y-80399167D01*
X238588563Y-80252737D01*
X238588567Y-80252731D01*
X238670742Y-80091457D01*
X238670749Y-80091441D01*
X238726679Y-79919304D01*
X238726684Y-79919283D01*
X238749537Y-79775000D01*
X237939144Y-79775000D01*
X237955000Y-79715826D01*
X237955000Y-79584174D01*
X237939144Y-79525000D01*
X238749537Y-79525000D01*
X238726684Y-79380716D01*
X238726679Y-79380695D01*
X238670749Y-79208558D01*
X238670742Y-79208542D01*
X238588567Y-79047268D01*
X238588563Y-79047262D01*
X238482176Y-78900832D01*
X238482161Y-78900814D01*
X238354185Y-78772838D01*
X238354167Y-78772823D01*
X238207737Y-78666436D01*
X238207731Y-78666432D01*
X238046457Y-78584257D01*
X238046441Y-78584250D01*
X237874304Y-78528320D01*
X237874281Y-78528314D01*
X237695518Y-78500001D01*
X237695502Y-78500000D01*
X237580000Y-78500000D01*
X237580000Y-79165855D01*
X237520826Y-79150000D01*
X237389174Y-79150000D01*
X237330000Y-79165855D01*
X237330000Y-78500000D01*
X237214498Y-78500000D01*
X237214481Y-78500001D01*
X237035718Y-78528314D01*
X237035695Y-78528320D01*
X236863558Y-78584250D01*
X236863542Y-78584257D01*
X236702268Y-78666432D01*
X236702262Y-78666436D01*
X236555832Y-78772823D01*
X236555814Y-78772838D01*
X236427838Y-78900814D01*
X236427823Y-78900832D01*
X236321436Y-79047262D01*
X236321432Y-79047268D01*
X236239257Y-79208542D01*
X236239250Y-79208558D01*
X236183320Y-79380695D01*
X236183315Y-79380716D01*
X236160463Y-79525000D01*
X210770682Y-79525000D01*
X211722043Y-78573639D01*
X211771019Y-78550801D01*
X211777904Y-78550500D01*
X211872473Y-78550500D01*
X211872475Y-78550500D01*
X212012485Y-78512984D01*
X212138015Y-78440509D01*
X212240509Y-78338015D01*
X212312984Y-78212485D01*
X212350500Y-78072475D01*
X212350500Y-77927525D01*
X212312984Y-77787515D01*
X212240509Y-77661985D01*
X212240508Y-77661984D01*
X212240507Y-77661982D01*
X212138017Y-77559492D01*
X212012486Y-77487016D01*
X212012484Y-77487015D01*
X211872475Y-77449500D01*
X211727525Y-77449500D01*
X211727524Y-77449500D01*
X211587515Y-77487015D01*
X211587513Y-77487016D01*
X211461982Y-77559492D01*
X211359492Y-77661982D01*
X211287016Y-77787513D01*
X211287015Y-77787515D01*
X211249500Y-77927524D01*
X211249500Y-78022096D01*
X211231018Y-78072876D01*
X211226361Y-78077957D01*
X185977957Y-103326361D01*
X185928981Y-103349199D01*
X185922096Y-103349500D01*
X160977904Y-103349500D01*
X160927124Y-103331018D01*
X160922043Y-103326361D01*
X159548492Y-101952810D01*
X159525654Y-101903834D01*
X159539640Y-101851636D01*
X159583904Y-101820642D01*
X159612485Y-101812984D01*
X159738015Y-101740509D01*
X159840509Y-101638015D01*
X159912984Y-101512485D01*
X159950500Y-101372475D01*
X159950500Y-101277904D01*
X159968982Y-101227124D01*
X159973639Y-101222043D01*
X162014223Y-99181459D01*
X168249500Y-99181459D01*
X168249500Y-99378540D01*
X168287948Y-99571835D01*
X168287949Y-99571837D01*
X168363366Y-99753910D01*
X168363369Y-99753915D01*
X168472859Y-99917780D01*
X168472865Y-99917787D01*
X168612212Y-100057134D01*
X168612218Y-100057139D01*
X168776086Y-100166632D01*
X168820694Y-100185109D01*
X168958162Y-100242050D01*
X168958164Y-100242051D01*
X169151459Y-100280500D01*
X170848541Y-100280500D01*
X171041835Y-100242051D01*
X171041837Y-100242050D01*
X171223914Y-100166632D01*
X171387782Y-100057139D01*
X171527139Y-99917782D01*
X171636632Y-99753914D01*
X171712051Y-99571835D01*
X171750500Y-99378541D01*
X171750500Y-99181459D01*
X171729912Y-99077957D01*
X171712051Y-98988164D01*
X171712050Y-98988162D01*
X171650890Y-98840509D01*
X171636632Y-98806086D01*
X171538681Y-98659492D01*
X171527140Y-98642219D01*
X171527134Y-98642212D01*
X171387787Y-98502865D01*
X171387780Y-98502859D01*
X171278536Y-98429865D01*
X171223914Y-98393368D01*
X171223911Y-98393367D01*
X171223910Y-98393366D01*
X171041837Y-98317949D01*
X171041835Y-98317948D01*
X170848541Y-98279500D01*
X169151459Y-98279500D01*
X168958164Y-98317948D01*
X168958162Y-98317949D01*
X168776089Y-98393366D01*
X168776084Y-98393369D01*
X168612219Y-98502859D01*
X168612212Y-98502865D01*
X168472865Y-98642212D01*
X168472859Y-98642219D01*
X168363369Y-98806084D01*
X168363366Y-98806089D01*
X168287949Y-98988162D01*
X168287948Y-98988164D01*
X168249500Y-99181459D01*
X162014223Y-99181459D01*
X164322043Y-96873639D01*
X164371019Y-96850801D01*
X164377904Y-96850500D01*
X164739254Y-96850500D01*
X164790034Y-96868982D01*
X164795104Y-96873628D01*
X164861985Y-96940509D01*
X164987515Y-97012984D01*
X165127525Y-97050500D01*
X165127527Y-97050500D01*
X165272473Y-97050500D01*
X165272475Y-97050500D01*
X165412485Y-97012984D01*
X165538015Y-96940509D01*
X165640509Y-96838015D01*
X165712984Y-96712485D01*
X165732016Y-96641459D01*
X168249500Y-96641459D01*
X168249500Y-96838540D01*
X168287948Y-97031835D01*
X168287949Y-97031837D01*
X168363366Y-97213910D01*
X168363369Y-97213915D01*
X168472859Y-97377780D01*
X168472865Y-97377787D01*
X168612212Y-97517134D01*
X168612218Y-97517139D01*
X168776086Y-97626632D01*
X168867125Y-97664341D01*
X168958162Y-97702050D01*
X168958164Y-97702051D01*
X169151459Y-97740500D01*
X170848541Y-97740500D01*
X171041835Y-97702051D01*
X171041837Y-97702050D01*
X171223914Y-97626632D01*
X171387782Y-97517139D01*
X171527139Y-97377782D01*
X171636632Y-97213914D01*
X171712051Y-97031835D01*
X171750500Y-96838541D01*
X171750500Y-96641459D01*
X171736778Y-96572475D01*
X171712051Y-96448164D01*
X171712050Y-96448162D01*
X171636633Y-96266089D01*
X171636632Y-96266086D01*
X171527139Y-96102218D01*
X171527134Y-96102212D01*
X171387787Y-95962865D01*
X171387780Y-95962859D01*
X171223915Y-95853369D01*
X171223914Y-95853368D01*
X171223911Y-95853367D01*
X171223910Y-95853366D01*
X171041837Y-95777949D01*
X171041835Y-95777948D01*
X170848541Y-95739500D01*
X169151459Y-95739500D01*
X168958164Y-95777948D01*
X168958162Y-95777949D01*
X168776089Y-95853366D01*
X168776084Y-95853369D01*
X168612219Y-95962859D01*
X168612212Y-95962865D01*
X168472865Y-96102212D01*
X168472859Y-96102219D01*
X168363369Y-96266084D01*
X168363366Y-96266089D01*
X168287949Y-96448162D01*
X168287948Y-96448164D01*
X168249500Y-96641459D01*
X165732016Y-96641459D01*
X165750500Y-96572475D01*
X165750500Y-96427525D01*
X165712984Y-96287515D01*
X165640509Y-96161985D01*
X165640508Y-96161984D01*
X165640507Y-96161982D01*
X165538017Y-96059492D01*
X165412486Y-95987016D01*
X165412484Y-95987015D01*
X165272475Y-95949500D01*
X165127525Y-95949500D01*
X165127524Y-95949500D01*
X164987515Y-95987015D01*
X164987513Y-95987016D01*
X164861984Y-96059491D01*
X164828550Y-96092926D01*
X164795114Y-96126361D01*
X164746140Y-96149199D01*
X164739254Y-96149500D01*
X164153853Y-96149500D01*
X164064714Y-96173385D01*
X164064710Y-96173386D01*
X163984785Y-96219531D01*
X159477957Y-100726361D01*
X159428981Y-100749199D01*
X159422096Y-100749500D01*
X159327524Y-100749500D01*
X159187515Y-100787015D01*
X159187513Y-100787016D01*
X159061982Y-100859492D01*
X158959492Y-100961982D01*
X158887016Y-101087513D01*
X158887016Y-101087514D01*
X158879358Y-101116094D01*
X158848362Y-101160360D01*
X158796164Y-101174345D01*
X158747189Y-101151507D01*
X156673639Y-99077957D01*
X156650801Y-99028981D01*
X156650500Y-99022096D01*
X156650500Y-98927527D01*
X156650500Y-98927525D01*
X156612984Y-98787515D01*
X156598242Y-98761982D01*
X156540507Y-98661982D01*
X156438017Y-98559492D01*
X156312486Y-98487016D01*
X156312484Y-98487015D01*
X156172475Y-98449500D01*
X156027525Y-98449500D01*
X156027524Y-98449500D01*
X155887515Y-98487015D01*
X155887513Y-98487016D01*
X155761982Y-98559492D01*
X155659492Y-98661982D01*
X155587016Y-98787513D01*
X155587015Y-98787515D01*
X155549500Y-98927524D01*
X155023705Y-98927524D01*
X155012984Y-98887515D01*
X154940509Y-98761985D01*
X154940508Y-98761984D01*
X154940507Y-98761982D01*
X154838017Y-98659492D01*
X154712486Y-98587016D01*
X154712484Y-98587015D01*
X154572475Y-98549500D01*
X154427525Y-98549500D01*
X154427524Y-98549500D01*
X154287515Y-98587015D01*
X154287513Y-98587016D01*
X154161982Y-98659492D01*
X154059492Y-98761982D01*
X153987016Y-98887513D01*
X153987015Y-98887515D01*
X153949500Y-99027524D01*
X142768157Y-99027524D01*
X143580470Y-98215212D01*
X143626614Y-98135288D01*
X143641557Y-98079520D01*
X143650500Y-98046144D01*
X143650500Y-94101459D01*
X168249500Y-94101459D01*
X168249500Y-94298540D01*
X168287948Y-94491835D01*
X168287949Y-94491837D01*
X168363366Y-94673910D01*
X168363369Y-94673915D01*
X168472859Y-94837780D01*
X168472865Y-94837787D01*
X168612212Y-94977134D01*
X168612218Y-94977139D01*
X168776086Y-95086632D01*
X168867125Y-95124341D01*
X168958162Y-95162050D01*
X168958164Y-95162051D01*
X169151459Y-95200500D01*
X170848541Y-95200500D01*
X171041835Y-95162051D01*
X171041837Y-95162050D01*
X171223914Y-95086632D01*
X171387782Y-94977139D01*
X171527139Y-94837782D01*
X171636632Y-94673914D01*
X171712051Y-94491835D01*
X171750500Y-94298541D01*
X171750500Y-94181459D01*
X189749500Y-94181459D01*
X189749500Y-94378540D01*
X189787948Y-94571835D01*
X189787949Y-94571837D01*
X189863366Y-94753910D01*
X189863369Y-94753915D01*
X189972859Y-94917780D01*
X189972865Y-94917787D01*
X190112212Y-95057134D01*
X190112218Y-95057139D01*
X190276086Y-95166632D01*
X190357851Y-95200500D01*
X190458162Y-95242050D01*
X190458164Y-95242051D01*
X190651459Y-95280500D01*
X192348541Y-95280500D01*
X192541835Y-95242051D01*
X192541837Y-95242050D01*
X192723914Y-95166632D01*
X192887782Y-95057139D01*
X193027139Y-94917782D01*
X193136632Y-94753914D01*
X193212051Y-94571835D01*
X193250500Y-94378541D01*
X193250500Y-94181459D01*
X193212051Y-93988165D01*
X193136632Y-93806086D01*
X193027139Y-93642218D01*
X193027134Y-93642212D01*
X192887787Y-93502865D01*
X192887780Y-93502859D01*
X192752059Y-93412174D01*
X192723914Y-93393368D01*
X192723911Y-93393367D01*
X192723910Y-93393366D01*
X192541837Y-93317949D01*
X192541835Y-93317948D01*
X192348541Y-93279500D01*
X190651459Y-93279500D01*
X190458164Y-93317948D01*
X190458162Y-93317949D01*
X190276089Y-93393366D01*
X190276084Y-93393369D01*
X190112219Y-93502859D01*
X190112212Y-93502865D01*
X189972865Y-93642212D01*
X189972859Y-93642219D01*
X189863369Y-93806084D01*
X189863366Y-93806089D01*
X189787949Y-93988162D01*
X189787948Y-93988164D01*
X189749500Y-94181459D01*
X171750500Y-94181459D01*
X171750500Y-94101459D01*
X171712051Y-93908165D01*
X171706098Y-93893794D01*
X171637945Y-93729256D01*
X171636632Y-93726086D01*
X171531070Y-93568101D01*
X171527140Y-93562219D01*
X171527134Y-93562212D01*
X171387787Y-93422865D01*
X171387780Y-93422859D01*
X171278536Y-93349865D01*
X171223914Y-93313368D01*
X171223911Y-93313367D01*
X171223910Y-93313366D01*
X171041837Y-93237949D01*
X171041835Y-93237948D01*
X170848541Y-93199500D01*
X169151459Y-93199500D01*
X168958164Y-93237948D01*
X168958162Y-93237949D01*
X168776089Y-93313366D01*
X168776084Y-93313369D01*
X168612219Y-93422859D01*
X168612212Y-93422865D01*
X168472865Y-93562212D01*
X168472859Y-93562219D01*
X168363369Y-93726084D01*
X168363366Y-93726089D01*
X168287949Y-93908162D01*
X168287948Y-93908164D01*
X168249500Y-94101459D01*
X143650500Y-94101459D01*
X143650500Y-81577903D01*
X143668982Y-81527123D01*
X143673639Y-81522042D01*
X147422042Y-77773639D01*
X147471018Y-77750801D01*
X147477903Y-77750500D01*
X149193979Y-77750500D01*
X149244759Y-77768982D01*
X149271779Y-77815782D01*
X149270287Y-77849946D01*
X149249500Y-77927522D01*
X149249500Y-78072475D01*
X149287015Y-78212484D01*
X149287016Y-78212486D01*
X149316103Y-78262865D01*
X149359491Y-78338015D01*
X149426361Y-78404885D01*
X149449199Y-78453860D01*
X149449500Y-78460746D01*
X149449500Y-81746146D01*
X149473385Y-81835285D01*
X149473386Y-81835289D01*
X149519531Y-81915214D01*
X158019531Y-90415212D01*
X158067009Y-90462690D01*
X158084789Y-90480470D01*
X158164710Y-90526613D01*
X158164712Y-90526614D01*
X158253856Y-90550500D01*
X158253858Y-90550500D01*
X168916978Y-90550500D01*
X168967758Y-90568982D01*
X168994778Y-90615782D01*
X168985394Y-90669000D01*
X168947210Y-90702486D01*
X168776089Y-90773366D01*
X168776084Y-90773369D01*
X168612219Y-90882859D01*
X168612212Y-90882865D01*
X168472865Y-91022212D01*
X168472859Y-91022219D01*
X168363369Y-91186084D01*
X168363366Y-91186089D01*
X168287949Y-91368162D01*
X168287948Y-91368164D01*
X168249500Y-91561459D01*
X168249500Y-91758540D01*
X168287948Y-91951835D01*
X168287949Y-91951837D01*
X168363366Y-92133910D01*
X168363368Y-92133914D01*
X168399865Y-92188536D01*
X168472859Y-92297780D01*
X168472865Y-92297787D01*
X168612212Y-92437134D01*
X168612218Y-92437139D01*
X168776086Y-92546632D01*
X168867125Y-92584341D01*
X168958162Y-92622050D01*
X168958164Y-92622051D01*
X169151459Y-92660500D01*
X170848541Y-92660500D01*
X171041835Y-92622051D01*
X171041837Y-92622050D01*
X171223914Y-92546632D01*
X171387782Y-92437139D01*
X171527139Y-92297782D01*
X171636632Y-92133914D01*
X171712051Y-91951835D01*
X171750500Y-91758541D01*
X171750500Y-91641459D01*
X189749500Y-91641459D01*
X189749500Y-91838540D01*
X189787948Y-92031835D01*
X189787949Y-92031837D01*
X189863366Y-92213910D01*
X189863369Y-92213915D01*
X189972859Y-92377780D01*
X189972865Y-92377787D01*
X190112212Y-92517134D01*
X190112218Y-92517139D01*
X190276086Y-92626632D01*
X190357851Y-92660500D01*
X190458162Y-92702050D01*
X190458164Y-92702051D01*
X190651459Y-92740500D01*
X192348541Y-92740500D01*
X192541835Y-92702051D01*
X192541837Y-92702050D01*
X192723914Y-92626632D01*
X192887782Y-92517139D01*
X193027139Y-92377782D01*
X193136632Y-92213914D01*
X193212051Y-92031835D01*
X193250500Y-91838541D01*
X193250500Y-91641459D01*
X193222361Y-91499998D01*
X193212051Y-91448164D01*
X193212050Y-91448162D01*
X193150303Y-91299091D01*
X193136632Y-91266086D01*
X193027139Y-91102218D01*
X193027134Y-91102212D01*
X192887787Y-90962865D01*
X192887780Y-90962859D01*
X192723915Y-90853369D01*
X192723914Y-90853368D01*
X192723911Y-90853367D01*
X192723910Y-90853366D01*
X192541837Y-90777949D01*
X192541835Y-90777948D01*
X192348541Y-90739500D01*
X190651459Y-90739500D01*
X190458164Y-90777948D01*
X190458162Y-90777949D01*
X190276089Y-90853366D01*
X190276084Y-90853369D01*
X190112219Y-90962859D01*
X190112212Y-90962865D01*
X189972865Y-91102212D01*
X189972859Y-91102219D01*
X189863369Y-91266084D01*
X189863366Y-91266089D01*
X189787949Y-91448162D01*
X189787948Y-91448164D01*
X189749500Y-91641459D01*
X171750500Y-91641459D01*
X171750500Y-91561459D01*
X171732643Y-91471685D01*
X171712051Y-91368164D01*
X171712050Y-91368162D01*
X171669768Y-91266084D01*
X171636632Y-91186086D01*
X171527139Y-91022218D01*
X171527134Y-91022212D01*
X171387787Y-90882865D01*
X171387780Y-90882859D01*
X171223915Y-90773369D01*
X171223914Y-90773368D01*
X171223911Y-90773367D01*
X171223910Y-90773366D01*
X171052790Y-90702486D01*
X171012948Y-90665978D01*
X171005895Y-90612401D01*
X171034930Y-90566825D01*
X171083022Y-90550500D01*
X178146142Y-90550500D01*
X178146144Y-90550500D01*
X178235288Y-90526614D01*
X178315212Y-90480470D01*
X178926348Y-89869334D01*
X179547778Y-89247905D01*
X179720684Y-89074999D01*
X189704293Y-89074999D01*
X189704293Y-89075000D01*
X191015856Y-89075000D01*
X191000000Y-89134174D01*
X191000000Y-89265826D01*
X191015856Y-89325000D01*
X189704293Y-89325000D01*
X189740350Y-89506275D01*
X189740352Y-89506281D01*
X189819499Y-89697356D01*
X189819502Y-89697362D01*
X189934409Y-89869334D01*
X189934415Y-89869341D01*
X190080658Y-90015584D01*
X190080665Y-90015590D01*
X190252637Y-90130497D01*
X190252643Y-90130500D01*
X190443718Y-90209647D01*
X190443724Y-90209649D01*
X190646585Y-90250000D01*
X191375000Y-90250000D01*
X191375000Y-89684144D01*
X191434174Y-89700000D01*
X191565826Y-89700000D01*
X191625000Y-89684144D01*
X191625000Y-90250000D01*
X192353415Y-90250000D01*
X192556275Y-90209649D01*
X192556281Y-90209647D01*
X192747356Y-90130500D01*
X192747362Y-90130497D01*
X192919334Y-90015590D01*
X192919341Y-90015584D01*
X193065584Y-89869341D01*
X193065590Y-89869334D01*
X193180497Y-89697362D01*
X193180500Y-89697356D01*
X193259647Y-89506281D01*
X193259649Y-89506275D01*
X193295706Y-89325000D01*
X191984144Y-89325000D01*
X192000000Y-89265826D01*
X192000000Y-89134174D01*
X191984144Y-89075000D01*
X193295707Y-89075000D01*
X193295706Y-89074999D01*
X193259649Y-88893724D01*
X193259647Y-88893718D01*
X193180500Y-88702643D01*
X193180497Y-88702637D01*
X193065590Y-88530665D01*
X193065584Y-88530658D01*
X192919341Y-88384415D01*
X192919334Y-88384409D01*
X192747362Y-88269502D01*
X192747356Y-88269499D01*
X192556281Y-88190352D01*
X192556275Y-88190350D01*
X192353415Y-88150000D01*
X191625000Y-88150000D01*
X191625000Y-88715855D01*
X191565826Y-88700000D01*
X191434174Y-88700000D01*
X191375000Y-88715855D01*
X191375000Y-88150000D01*
X190646585Y-88150000D01*
X190443724Y-88190350D01*
X190443718Y-88190352D01*
X190252643Y-88269499D01*
X190252637Y-88269502D01*
X190080665Y-88384409D01*
X190080658Y-88384415D01*
X189934415Y-88530658D01*
X189934409Y-88530665D01*
X189819502Y-88702637D01*
X189819499Y-88702643D01*
X189740352Y-88893718D01*
X189740350Y-88893724D01*
X189704293Y-89074999D01*
X179720684Y-89074999D01*
X182234224Y-86561459D01*
X189749500Y-86561459D01*
X189749500Y-86758540D01*
X189787948Y-86951835D01*
X189787949Y-86951837D01*
X189863366Y-87133910D01*
X189863369Y-87133915D01*
X189972859Y-87297780D01*
X189972865Y-87297787D01*
X190112212Y-87437134D01*
X190112219Y-87437140D01*
X190125686Y-87446138D01*
X190276086Y-87546632D01*
X190313152Y-87561985D01*
X190458162Y-87622050D01*
X190458164Y-87622051D01*
X190651459Y-87660500D01*
X192348541Y-87660500D01*
X192541835Y-87622051D01*
X192541837Y-87622050D01*
X192723914Y-87546632D01*
X192887782Y-87437139D01*
X193027139Y-87297782D01*
X193136632Y-87133914D01*
X193212051Y-86951835D01*
X193250500Y-86758541D01*
X193250500Y-86561459D01*
X193212051Y-86368164D01*
X193212050Y-86368162D01*
X193136633Y-86186089D01*
X193136632Y-86186086D01*
X193027973Y-86023466D01*
X193027140Y-86022219D01*
X193027134Y-86022212D01*
X192887787Y-85882865D01*
X192887780Y-85882859D01*
X192723915Y-85773369D01*
X192723914Y-85773368D01*
X192723911Y-85773367D01*
X192723910Y-85773366D01*
X192541837Y-85697949D01*
X192541835Y-85697948D01*
X192348541Y-85659500D01*
X190651459Y-85659500D01*
X190458164Y-85697948D01*
X190458162Y-85697949D01*
X190276089Y-85773366D01*
X190276084Y-85773369D01*
X190112219Y-85882859D01*
X190112212Y-85882865D01*
X189972865Y-86022212D01*
X189972859Y-86022219D01*
X189863369Y-86186084D01*
X189863366Y-86186089D01*
X189787949Y-86368162D01*
X189787948Y-86368164D01*
X189749500Y-86561459D01*
X182234224Y-86561459D01*
X182293966Y-86501717D01*
X185172043Y-83623639D01*
X185221019Y-83600801D01*
X185227904Y-83600500D01*
X185322473Y-83600500D01*
X185322475Y-83600500D01*
X185450053Y-83566315D01*
X185503887Y-83571025D01*
X185542098Y-83609236D01*
X185549500Y-83642623D01*
X185549500Y-84422096D01*
X185531018Y-84472876D01*
X185526361Y-84477957D01*
X185377957Y-84626361D01*
X185328981Y-84649199D01*
X185322096Y-84649500D01*
X185227524Y-84649500D01*
X185087515Y-84687015D01*
X185087513Y-84687016D01*
X184961982Y-84759492D01*
X184859492Y-84861982D01*
X184787016Y-84987513D01*
X184787015Y-84987515D01*
X184749500Y-85127524D01*
X184749500Y-85272475D01*
X184787015Y-85412484D01*
X184787016Y-85412486D01*
X184859492Y-85538017D01*
X184961982Y-85640507D01*
X184961984Y-85640508D01*
X184961985Y-85640509D01*
X185087515Y-85712984D01*
X185227525Y-85750500D01*
X185227527Y-85750500D01*
X185372473Y-85750500D01*
X185372475Y-85750500D01*
X185512485Y-85712984D01*
X185638015Y-85640509D01*
X185740509Y-85538015D01*
X185812984Y-85412485D01*
X185850500Y-85272475D01*
X185850500Y-85177904D01*
X185868982Y-85127124D01*
X185873628Y-85122053D01*
X186180470Y-84815212D01*
X186226614Y-84735288D01*
X186250500Y-84646144D01*
X186250500Y-84021459D01*
X189749500Y-84021459D01*
X189749500Y-84218540D01*
X189787948Y-84411835D01*
X189787949Y-84411837D01*
X189841036Y-84540000D01*
X189863368Y-84593914D01*
X189898265Y-84646141D01*
X189972859Y-84757780D01*
X189972865Y-84757787D01*
X190112212Y-84897134D01*
X190112218Y-84897139D01*
X190276086Y-85006632D01*
X190367125Y-85044341D01*
X190458162Y-85082050D01*
X190458164Y-85082051D01*
X190651459Y-85120500D01*
X192348541Y-85120500D01*
X192541835Y-85082051D01*
X192541837Y-85082050D01*
X192723914Y-85006632D01*
X192887782Y-84897139D01*
X193027139Y-84757782D01*
X193136632Y-84593914D01*
X193212051Y-84411835D01*
X193250500Y-84218541D01*
X193250500Y-84021459D01*
X193234398Y-83940509D01*
X193212051Y-83828164D01*
X193212050Y-83828162D01*
X193172630Y-83732993D01*
X193136632Y-83646086D01*
X193063636Y-83536840D01*
X193027140Y-83482219D01*
X193027134Y-83482212D01*
X192887787Y-83342865D01*
X192887780Y-83342859D01*
X192739962Y-83244091D01*
X192723914Y-83233368D01*
X192723911Y-83233367D01*
X192723910Y-83233366D01*
X192541837Y-83157949D01*
X192541835Y-83157948D01*
X192348541Y-83119500D01*
X190651459Y-83119500D01*
X190458164Y-83157948D01*
X190458162Y-83157949D01*
X190276089Y-83233366D01*
X190276084Y-83233369D01*
X190112219Y-83342859D01*
X190112212Y-83342865D01*
X189972865Y-83482212D01*
X189972859Y-83482219D01*
X189863369Y-83646084D01*
X189863366Y-83646089D01*
X189787949Y-83828162D01*
X189787948Y-83828164D01*
X189749500Y-84021459D01*
X186250500Y-84021459D01*
X186250500Y-81481459D01*
X189749500Y-81481459D01*
X189749500Y-81678540D01*
X189787948Y-81871835D01*
X189787949Y-81871837D01*
X189863366Y-82053910D01*
X189863369Y-82053915D01*
X189972859Y-82217780D01*
X189972865Y-82217787D01*
X190112212Y-82357134D01*
X190112218Y-82357139D01*
X190276086Y-82466632D01*
X190279633Y-82468101D01*
X190458162Y-82542050D01*
X190458164Y-82542051D01*
X190651459Y-82580500D01*
X192348541Y-82580500D01*
X192541835Y-82542051D01*
X192541837Y-82542050D01*
X192551615Y-82538000D01*
X192723914Y-82466632D01*
X192887782Y-82357139D01*
X193027139Y-82217782D01*
X193136632Y-82053914D01*
X193212051Y-81871835D01*
X193250500Y-81678541D01*
X193250500Y-81481459D01*
X193212051Y-81288164D01*
X193212050Y-81288162D01*
X193136633Y-81106089D01*
X193136632Y-81106086D01*
X193027139Y-80942218D01*
X193027134Y-80942212D01*
X192887787Y-80802865D01*
X192887780Y-80802859D01*
X192768050Y-80722859D01*
X192723914Y-80693368D01*
X192723911Y-80693367D01*
X192723910Y-80693366D01*
X192541837Y-80617949D01*
X192541835Y-80617948D01*
X192348541Y-80579500D01*
X190651459Y-80579500D01*
X190458164Y-80617948D01*
X190458162Y-80617949D01*
X190276089Y-80693366D01*
X190276084Y-80693369D01*
X190112219Y-80802859D01*
X190112212Y-80802865D01*
X189972865Y-80942212D01*
X189972859Y-80942219D01*
X189863369Y-81106084D01*
X189863366Y-81106089D01*
X189787949Y-81288162D01*
X189787948Y-81288164D01*
X189749500Y-81481459D01*
X186250500Y-81481459D01*
X186250500Y-78941459D01*
X189749500Y-78941459D01*
X189749500Y-79138540D01*
X189787948Y-79331835D01*
X189787949Y-79331837D01*
X189863366Y-79513910D01*
X189863368Y-79513914D01*
X189899865Y-79568536D01*
X189972859Y-79677780D01*
X189972865Y-79677787D01*
X190112212Y-79817134D01*
X190112218Y-79817139D01*
X190276086Y-79926632D01*
X190349418Y-79957007D01*
X190458162Y-80002050D01*
X190458164Y-80002051D01*
X190651459Y-80040500D01*
X192348541Y-80040500D01*
X192541835Y-80002051D01*
X192541837Y-80002050D01*
X192723914Y-79926632D01*
X192887782Y-79817139D01*
X193027139Y-79677782D01*
X193136632Y-79513914D01*
X193212051Y-79331835D01*
X193250500Y-79138541D01*
X193250500Y-78941459D01*
X193212051Y-78748165D01*
X193210815Y-78745182D01*
X193152299Y-78603910D01*
X193136632Y-78566086D01*
X193032316Y-78409966D01*
X193027140Y-78402219D01*
X193027134Y-78402212D01*
X192887787Y-78262865D01*
X192887780Y-78262859D01*
X192723915Y-78153369D01*
X192723914Y-78153368D01*
X192723911Y-78153367D01*
X192723910Y-78153366D01*
X192541837Y-78077949D01*
X192541835Y-78077948D01*
X192348541Y-78039500D01*
X190651459Y-78039500D01*
X190458164Y-78077948D01*
X190458162Y-78077949D01*
X190276089Y-78153366D01*
X190276084Y-78153369D01*
X190112219Y-78262859D01*
X190112212Y-78262865D01*
X189972865Y-78402212D01*
X189972859Y-78402219D01*
X189863369Y-78566084D01*
X189863366Y-78566089D01*
X189787949Y-78748162D01*
X189787948Y-78748164D01*
X189749500Y-78941459D01*
X186250500Y-78941459D01*
X186250500Y-78553856D01*
X186226614Y-78464712D01*
X186209370Y-78434845D01*
X186180469Y-78384787D01*
X186180468Y-78384786D01*
X186180467Y-78384784D01*
X185773639Y-77977956D01*
X185750801Y-77928980D01*
X185750500Y-77922095D01*
X185750500Y-77827527D01*
X185750500Y-77827525D01*
X185712984Y-77687515D01*
X185698242Y-77661982D01*
X185640507Y-77561982D01*
X185538017Y-77459492D01*
X185412486Y-77387016D01*
X185412484Y-77387015D01*
X185272475Y-77349500D01*
X185127525Y-77349500D01*
X185127524Y-77349500D01*
X184987515Y-77387015D01*
X184987513Y-77387016D01*
X184861982Y-77459492D01*
X184759492Y-77561982D01*
X184687016Y-77687513D01*
X184687015Y-77687515D01*
X184649500Y-77827524D01*
X184649500Y-77972475D01*
X184687015Y-78112484D01*
X184687016Y-78112486D01*
X184759492Y-78238017D01*
X184861982Y-78340507D01*
X184982287Y-78409966D01*
X184987515Y-78412984D01*
X185127525Y-78450500D01*
X185222096Y-78450500D01*
X185272876Y-78468982D01*
X185277957Y-78473639D01*
X185526361Y-78722043D01*
X185549199Y-78771019D01*
X185549500Y-78777904D01*
X185549500Y-82457376D01*
X185531018Y-82508156D01*
X185484218Y-82535176D01*
X185450054Y-82533684D01*
X185322477Y-82499500D01*
X185322475Y-82499500D01*
X185177525Y-82499500D01*
X185177524Y-82499500D01*
X185037515Y-82537015D01*
X185037513Y-82537016D01*
X184911982Y-82609492D01*
X184809492Y-82711982D01*
X184737016Y-82837513D01*
X184737015Y-82837515D01*
X184699500Y-82977524D01*
X184699500Y-83072096D01*
X184681018Y-83122876D01*
X184676361Y-83127957D01*
X177977957Y-89826361D01*
X177928981Y-89849199D01*
X177922096Y-89849500D01*
X171613654Y-89849500D01*
X171562874Y-89831018D01*
X171535854Y-89784218D01*
X171545238Y-89731000D01*
X171547968Y-89726610D01*
X171588516Y-89665925D01*
X171636632Y-89593914D01*
X171712051Y-89411835D01*
X171750500Y-89218541D01*
X171750500Y-89021459D01*
X171725092Y-88893724D01*
X171712051Y-88828164D01*
X171712050Y-88828162D01*
X171636633Y-88646089D01*
X171636632Y-88646086D01*
X171527139Y-88482218D01*
X171527134Y-88482212D01*
X171387787Y-88342865D01*
X171387780Y-88342859D01*
X171277988Y-88269499D01*
X171223914Y-88233368D01*
X171223911Y-88233367D01*
X171223910Y-88233366D01*
X171041837Y-88157949D01*
X171041835Y-88157948D01*
X170848541Y-88119500D01*
X169151459Y-88119500D01*
X168958164Y-88157948D01*
X168958162Y-88157949D01*
X168776089Y-88233366D01*
X168776084Y-88233369D01*
X168612219Y-88342859D01*
X168612212Y-88342865D01*
X168472865Y-88482212D01*
X168472859Y-88482219D01*
X168363369Y-88646084D01*
X168363366Y-88646089D01*
X168287949Y-88828162D01*
X168287948Y-88828164D01*
X168249500Y-89021459D01*
X168249500Y-89218540D01*
X168287948Y-89411835D01*
X168287949Y-89411837D01*
X168327370Y-89507007D01*
X168363368Y-89593914D01*
X168396583Y-89643623D01*
X168452032Y-89726610D01*
X168464876Y-89779101D01*
X168440975Y-89827567D01*
X168391513Y-89849331D01*
X168386346Y-89849500D01*
X158477903Y-89849500D01*
X158427123Y-89831018D01*
X158422042Y-89826361D01*
X150173639Y-81577957D01*
X150150801Y-81528981D01*
X150150500Y-81522096D01*
X150150500Y-78460746D01*
X150168982Y-78409966D01*
X150173628Y-78404895D01*
X150240509Y-78338015D01*
X150312984Y-78212485D01*
X150350500Y-78072475D01*
X150350500Y-77927525D01*
X150329713Y-77849946D01*
X150334423Y-77796113D01*
X150372634Y-77757902D01*
X150406021Y-77750500D01*
X159222096Y-77750500D01*
X159238303Y-77756398D01*
X159255483Y-77757902D01*
X159269607Y-77767792D01*
X159272876Y-77768982D01*
X159277957Y-77773639D01*
X159326361Y-77822043D01*
X159349199Y-77871019D01*
X159349500Y-77877904D01*
X159349500Y-77972475D01*
X159387015Y-78112484D01*
X159387016Y-78112486D01*
X159459492Y-78238017D01*
X159561982Y-78340507D01*
X159682287Y-78409966D01*
X159687515Y-78412984D01*
X159827525Y-78450500D01*
X159827527Y-78450500D01*
X159972473Y-78450500D01*
X159972475Y-78450500D01*
X160112485Y-78412984D01*
X160238015Y-78340509D01*
X160340509Y-78238015D01*
X160412984Y-78112485D01*
X160450500Y-77972475D01*
X160450500Y-77827525D01*
X160412984Y-77687515D01*
X160398242Y-77661982D01*
X160340507Y-77561982D01*
X160238017Y-77459492D01*
X160112486Y-77387016D01*
X160112484Y-77387015D01*
X159972475Y-77349500D01*
X159877904Y-77349500D01*
X159827124Y-77331018D01*
X159822053Y-77326371D01*
X159615212Y-77119530D01*
X159535289Y-77073386D01*
X159535285Y-77073385D01*
X159446146Y-77049500D01*
X159446144Y-77049500D01*
X147253856Y-77049500D01*
X147253853Y-77049500D01*
X147164714Y-77073385D01*
X147164710Y-77073386D01*
X147084786Y-77119531D01*
X143019531Y-81184785D01*
X142973386Y-81264710D01*
X142973385Y-81264714D01*
X142949500Y-81353853D01*
X142949500Y-97822095D01*
X142931018Y-97872875D01*
X142926361Y-97877956D01*
X141616307Y-99188009D01*
X141567331Y-99210847D01*
X141524581Y-99202538D01*
X141418417Y-99148445D01*
X141418409Y-99148442D01*
X141216251Y-99082756D01*
X141216232Y-99082751D01*
X141006298Y-99049501D01*
X141006290Y-99049500D01*
X141006287Y-99049500D01*
X140793713Y-99049500D01*
X140793710Y-99049500D01*
X140793701Y-99049501D01*
X140583767Y-99082751D01*
X140583748Y-99082756D01*
X140381590Y-99148442D01*
X140381572Y-99148449D01*
X140192188Y-99244946D01*
X140192177Y-99244953D01*
X140020215Y-99369890D01*
X140020197Y-99369905D01*
X139869905Y-99520197D01*
X139869890Y-99520215D01*
X139744953Y-99692177D01*
X139744946Y-99692188D01*
X139648449Y-99881572D01*
X139648442Y-99881590D01*
X139582756Y-100083748D01*
X139582751Y-100083767D01*
X139549501Y-100293701D01*
X139549500Y-100293717D01*
X129750500Y-100293717D01*
X129750500Y-99275326D01*
X129735966Y-99202260D01*
X129700007Y-99148442D01*
X129680601Y-99119398D01*
X129625752Y-99082751D01*
X129597740Y-99064034D01*
X129597738Y-99064033D01*
X129524674Y-99049500D01*
X127275326Y-99049500D01*
X127202261Y-99064033D01*
X127202260Y-99064034D01*
X127119398Y-99119398D01*
X127064034Y-99202260D01*
X127064033Y-99202261D01*
X127049500Y-99275326D01*
X91905505Y-99275326D01*
X91880979Y-99120476D01*
X91880977Y-99120472D01*
X91880977Y-99120466D01*
X91817720Y-98925781D01*
X91817716Y-98925774D01*
X91817715Y-98925770D01*
X91747269Y-98787513D01*
X91724787Y-98743390D01*
X91604466Y-98577781D01*
X91604461Y-98577776D01*
X91604456Y-98577770D01*
X91459729Y-98433043D01*
X91459723Y-98433038D01*
X91459719Y-98433034D01*
X91444664Y-98422096D01*
X91376028Y-98372229D01*
X91294116Y-98312717D01*
X91294110Y-98312713D01*
X91291582Y-98311425D01*
X133524500Y-98311425D01*
X133524500Y-98488574D01*
X133524501Y-98488588D01*
X133552212Y-98663546D01*
X133552217Y-98663567D01*
X133606955Y-98832036D01*
X133606962Y-98832052D01*
X133687386Y-98989890D01*
X133687390Y-98989896D01*
X133791511Y-99133206D01*
X133791517Y-99133214D01*
X133791521Y-99133218D01*
X133791526Y-99133224D01*
X133916775Y-99258473D01*
X133916781Y-99258478D01*
X133916786Y-99258483D01*
X134060110Y-99362614D01*
X134130789Y-99398627D01*
X134217947Y-99443037D01*
X134217963Y-99443044D01*
X134386432Y-99497782D01*
X134386434Y-99497782D01*
X134386445Y-99497786D01*
X134561421Y-99525500D01*
X134561426Y-99525500D01*
X134738574Y-99525500D01*
X134738579Y-99525500D01*
X134913555Y-99497786D01*
X135082042Y-99443042D01*
X135239890Y-99362614D01*
X135383214Y-99258483D01*
X135508483Y-99133214D01*
X135612614Y-98989890D01*
X135693042Y-98832042D01*
X135747786Y-98663555D01*
X135775500Y-98488579D01*
X135775500Y-98311421D01*
X135747786Y-98136445D01*
X135747782Y-98136432D01*
X135693044Y-97967963D01*
X135693037Y-97967947D01*
X135647183Y-97877956D01*
X135612614Y-97810110D01*
X135508483Y-97666786D01*
X135508478Y-97666781D01*
X135508473Y-97666775D01*
X135383224Y-97541526D01*
X135383218Y-97541521D01*
X135383214Y-97541517D01*
X135239890Y-97437386D01*
X135082052Y-97356962D01*
X135082036Y-97356955D01*
X134913567Y-97302217D01*
X134913556Y-97302214D01*
X134913555Y-97302214D01*
X134913553Y-97302213D01*
X134913546Y-97302212D01*
X134738588Y-97274501D01*
X134738583Y-97274500D01*
X134738579Y-97274500D01*
X134561421Y-97274500D01*
X134561417Y-97274500D01*
X134561411Y-97274501D01*
X134386453Y-97302212D01*
X134386432Y-97302217D01*
X134217963Y-97356955D01*
X134217947Y-97356962D01*
X134060109Y-97437386D01*
X134060103Y-97437390D01*
X133916793Y-97541511D01*
X133916775Y-97541526D01*
X133791526Y-97666775D01*
X133791511Y-97666793D01*
X133687390Y-97810103D01*
X133687386Y-97810109D01*
X133606962Y-97967947D01*
X133606955Y-97967963D01*
X133552217Y-98136432D01*
X133552212Y-98136453D01*
X133524501Y-98311411D01*
X133524500Y-98311425D01*
X91291582Y-98311425D01*
X91111729Y-98219784D01*
X91111716Y-98219779D01*
X90917042Y-98156525D01*
X90917023Y-98156520D01*
X90714863Y-98124501D01*
X90714855Y-98124500D01*
X90714852Y-98124500D01*
X90510148Y-98124500D01*
X90510145Y-98124500D01*
X90510136Y-98124501D01*
X90307976Y-98156520D01*
X90307957Y-98156525D01*
X90113283Y-98219779D01*
X90113270Y-98219784D01*
X89930889Y-98312713D01*
X89930883Y-98312717D01*
X89765288Y-98433028D01*
X89765270Y-98433043D01*
X89620543Y-98577770D01*
X89620528Y-98577788D01*
X89500217Y-98743383D01*
X89500213Y-98743389D01*
X89407284Y-98925770D01*
X89407279Y-98925783D01*
X89344025Y-99120457D01*
X89344020Y-99120476D01*
X89312001Y-99322636D01*
X89312000Y-99322652D01*
X85000000Y-99322652D01*
X85000000Y-96853893D01*
X85018482Y-96803113D01*
X85065282Y-96776093D01*
X85110914Y-96781626D01*
X85117625Y-96784589D01*
X85142707Y-96787499D01*
X86462500Y-96787499D01*
X86462500Y-95847721D01*
X86511662Y-95857500D01*
X86663338Y-95857500D01*
X86712500Y-95847721D01*
X86712500Y-96787499D01*
X88032286Y-96787499D01*
X88032298Y-96787498D01*
X88057373Y-96784589D01*
X88057377Y-96784588D01*
X88159975Y-96739288D01*
X88159983Y-96739282D01*
X88239282Y-96659983D01*
X88239286Y-96659977D01*
X88284589Y-96557375D01*
X88287499Y-96532294D01*
X88287500Y-96532291D01*
X88287500Y-95212500D01*
X87347721Y-95212500D01*
X87357500Y-95163338D01*
X87357500Y-95011662D01*
X87347721Y-94962500D01*
X88287499Y-94962500D01*
X88287499Y-93942705D01*
X107787500Y-93942705D01*
X107787500Y-95262500D01*
X108727279Y-95262500D01*
X108717500Y-95311662D01*
X108717500Y-95463338D01*
X108727279Y-95512500D01*
X107787501Y-95512500D01*
X107787501Y-96832298D01*
X107790410Y-96857373D01*
X107790411Y-96857377D01*
X107835711Y-96959975D01*
X107835717Y-96959983D01*
X107915016Y-97039282D01*
X107915022Y-97039286D01*
X108017625Y-97084589D01*
X108017624Y-97084589D01*
X108042707Y-97087499D01*
X109362500Y-97087499D01*
X109362500Y-96147721D01*
X109411662Y-96157500D01*
X109563338Y-96157500D01*
X109612500Y-96147721D01*
X109612500Y-97087499D01*
X110932286Y-97087499D01*
X110932298Y-97087498D01*
X110957373Y-97084589D01*
X110957377Y-97084588D01*
X111059975Y-97039288D01*
X111059983Y-97039282D01*
X111139282Y-96959983D01*
X111139286Y-96959977D01*
X111184589Y-96857375D01*
X111187499Y-96832294D01*
X111187500Y-96832291D01*
X111187500Y-95512500D01*
X110247721Y-95512500D01*
X110257500Y-95463338D01*
X110257500Y-95311662D01*
X110247721Y-95262500D01*
X111187499Y-95262500D01*
X111187499Y-93942713D01*
X111187498Y-93942701D01*
X111184589Y-93917626D01*
X111184588Y-93917622D01*
X111139288Y-93815024D01*
X111139282Y-93815016D01*
X111059983Y-93735717D01*
X111059972Y-93735710D01*
X111045356Y-93729256D01*
X111006368Y-93691837D01*
X111000554Y-93638112D01*
X111030635Y-93593219D01*
X111033321Y-93591339D01*
X111068101Y-93568101D01*
X111123466Y-93485240D01*
X111138000Y-93412174D01*
X111138000Y-90562826D01*
X111123466Y-90489760D01*
X111074066Y-90415826D01*
X111068101Y-90406898D01*
X111018428Y-90373709D01*
X110985240Y-90351534D01*
X110985238Y-90351533D01*
X110912174Y-90337000D01*
X108062826Y-90337000D01*
X107989761Y-90351533D01*
X107989760Y-90351534D01*
X107906898Y-90406898D01*
X107851534Y-90489760D01*
X107851533Y-90489761D01*
X107837000Y-90562826D01*
X107837000Y-93412173D01*
X107851533Y-93485238D01*
X107851534Y-93485240D01*
X107906899Y-93568101D01*
X107941623Y-93591302D01*
X107973576Y-93634880D01*
X107970043Y-93688803D01*
X107932675Y-93727840D01*
X107929645Y-93729256D01*
X107915024Y-93735712D01*
X107915016Y-93735717D01*
X107835717Y-93815016D01*
X107835713Y-93815022D01*
X107790410Y-93917624D01*
X107787500Y-93942705D01*
X88287499Y-93942705D01*
X88287499Y-93642713D01*
X88287498Y-93642701D01*
X88284589Y-93617626D01*
X88284588Y-93617622D01*
X88239288Y-93515024D01*
X88239282Y-93515016D01*
X88159983Y-93435717D01*
X88159977Y-93435713D01*
X88057374Y-93390410D01*
X88057375Y-93390410D01*
X88032294Y-93387500D01*
X86712500Y-93387500D01*
X86712500Y-94327278D01*
X86663338Y-94317500D01*
X86511662Y-94317500D01*
X86462500Y-94327278D01*
X86462500Y-93387500D01*
X85142713Y-93387500D01*
X85142701Y-93387501D01*
X85117626Y-93390410D01*
X85117621Y-93390411D01*
X85110907Y-93393376D01*
X85056988Y-93396977D01*
X85013368Y-93365077D01*
X85000000Y-93321106D01*
X85000000Y-89257127D01*
X117649500Y-89257127D01*
X117649500Y-90852879D01*
X117655908Y-90912479D01*
X117655909Y-90912485D01*
X117706202Y-91047329D01*
X117706205Y-91047334D01*
X117792453Y-91162546D01*
X117907665Y-91248794D01*
X117907670Y-91248797D01*
X117987052Y-91278404D01*
X118042517Y-91299091D01*
X118102127Y-91305500D01*
X119397872Y-91305499D01*
X119397879Y-91305499D01*
X119435806Y-91301421D01*
X119457483Y-91299091D01*
X119545974Y-91266086D01*
X119592329Y-91248797D01*
X119592334Y-91248794D01*
X119707546Y-91162546D01*
X119793794Y-91047334D01*
X119793797Y-91047329D01*
X119829079Y-90952731D01*
X119844091Y-90912483D01*
X119850500Y-90852873D01*
X119850499Y-89818393D01*
X120149500Y-89818393D01*
X120149500Y-90291606D01*
X120149501Y-90291622D01*
X120176595Y-90462690D01*
X120176600Y-90462709D01*
X120230126Y-90627443D01*
X120230127Y-90627445D01*
X120306811Y-90777948D01*
X120308771Y-90781793D01*
X120308772Y-90781794D01*
X120382202Y-90882861D01*
X120410586Y-90921928D01*
X120410590Y-90921932D01*
X120410595Y-90921938D01*
X120533061Y-91044404D01*
X120533067Y-91044409D01*
X120533072Y-91044414D01*
X120673212Y-91146232D01*
X120827555Y-91224873D01*
X120992299Y-91278402D01*
X120992305Y-91278402D01*
X120992309Y-91278404D01*
X121122918Y-91299090D01*
X121163389Y-91305500D01*
X121163394Y-91305500D01*
X121336606Y-91305500D01*
X121336611Y-91305500D01*
X121422156Y-91291951D01*
X121507690Y-91278404D01*
X121507692Y-91278403D01*
X121507701Y-91278402D01*
X121672445Y-91224873D01*
X121826788Y-91146232D01*
X121966928Y-91044414D01*
X122089414Y-90921928D01*
X122191232Y-90781788D01*
X122269873Y-90627445D01*
X122323402Y-90462701D01*
X122350500Y-90291611D01*
X122350500Y-89818389D01*
X122331331Y-89697362D01*
X122323404Y-89647309D01*
X122323402Y-89647305D01*
X122323402Y-89647299D01*
X122269873Y-89482555D01*
X122191232Y-89328212D01*
X122089414Y-89188072D01*
X122089409Y-89188067D01*
X122089404Y-89188061D01*
X121966938Y-89065595D01*
X121966932Y-89065590D01*
X121966928Y-89065586D01*
X121966920Y-89065580D01*
X121826794Y-88963772D01*
X121826793Y-88963771D01*
X121826790Y-88963769D01*
X121826788Y-88963768D01*
X121672445Y-88885127D01*
X121672444Y-88885126D01*
X121507709Y-88831600D01*
X121507690Y-88831595D01*
X121336622Y-88804501D01*
X121336614Y-88804500D01*
X121336611Y-88804500D01*
X121163389Y-88804500D01*
X121163386Y-88804500D01*
X121163377Y-88804501D01*
X120992309Y-88831595D01*
X120992290Y-88831600D01*
X120827556Y-88885126D01*
X120673206Y-88963771D01*
X120673205Y-88963772D01*
X120533079Y-89065580D01*
X120533061Y-89065595D01*
X120410595Y-89188061D01*
X120410580Y-89188079D01*
X120308772Y-89328205D01*
X120308771Y-89328206D01*
X120230126Y-89482556D01*
X120176600Y-89647290D01*
X120176595Y-89647309D01*
X120149501Y-89818377D01*
X120149500Y-89818393D01*
X119850499Y-89818393D01*
X119850499Y-89257128D01*
X119850499Y-89257127D01*
X119850499Y-89257120D01*
X119844091Y-89197520D01*
X119844090Y-89197514D01*
X119793797Y-89062670D01*
X119793794Y-89062665D01*
X119707546Y-88947453D01*
X119592334Y-88861205D01*
X119592329Y-88861202D01*
X119457482Y-88810908D01*
X119404281Y-88805188D01*
X119397873Y-88804500D01*
X119397872Y-88804500D01*
X118102120Y-88804500D01*
X118042520Y-88810908D01*
X118042514Y-88810909D01*
X117907670Y-88861202D01*
X117907665Y-88861205D01*
X117792453Y-88947453D01*
X117706205Y-89062665D01*
X117706202Y-89062670D01*
X117655908Y-89197517D01*
X117655908Y-89197518D01*
X117649500Y-89257127D01*
X85000000Y-89257127D01*
X85000000Y-82962826D01*
X107837000Y-82962826D01*
X107837000Y-85812173D01*
X107851533Y-85885238D01*
X107851534Y-85885240D01*
X107873709Y-85918428D01*
X107906898Y-85968101D01*
X107940087Y-85990276D01*
X107989760Y-86023466D01*
X108062826Y-86038000D01*
X110912174Y-86038000D01*
X110985240Y-86023466D01*
X111068101Y-85968101D01*
X111123466Y-85885240D01*
X111138000Y-85812174D01*
X111138000Y-83427524D01*
X123949500Y-83427524D01*
X123949500Y-83572475D01*
X123987015Y-83712484D01*
X123987016Y-83712486D01*
X124059492Y-83838017D01*
X124161982Y-83940507D01*
X124161984Y-83940508D01*
X124161985Y-83940509D01*
X124287515Y-84012984D01*
X124427525Y-84050500D01*
X124427527Y-84050500D01*
X124572473Y-84050500D01*
X124572475Y-84050500D01*
X124712485Y-84012984D01*
X124838015Y-83940509D01*
X124940509Y-83838015D01*
X125012984Y-83712485D01*
X125050500Y-83572475D01*
X125050500Y-83427525D01*
X125012984Y-83287515D01*
X124991613Y-83250500D01*
X124961084Y-83197621D01*
X124950500Y-83158121D01*
X124950500Y-75427524D01*
X125949500Y-75427524D01*
X125949500Y-75572475D01*
X125987015Y-75712484D01*
X125987016Y-75712486D01*
X126059492Y-75838017D01*
X126165614Y-75944139D01*
X126188452Y-75993115D01*
X126174466Y-76045313D01*
X126165614Y-76055861D01*
X126059492Y-76161982D01*
X125987016Y-76287513D01*
X125987015Y-76287515D01*
X125949500Y-76427524D01*
X125949500Y-76572475D01*
X125987015Y-76712484D01*
X125987016Y-76712486D01*
X126059492Y-76838017D01*
X126161982Y-76940507D01*
X126161984Y-76940508D01*
X126161985Y-76940509D01*
X126287515Y-77012984D01*
X126427525Y-77050500D01*
X126427527Y-77050500D01*
X126572473Y-77050500D01*
X126572475Y-77050500D01*
X126712485Y-77012984D01*
X126838015Y-76940509D01*
X126904885Y-76873638D01*
X126953860Y-76850801D01*
X126960746Y-76850500D01*
X158046142Y-76850500D01*
X158046144Y-76850500D01*
X158135288Y-76826614D01*
X158145906Y-76820483D01*
X158145913Y-76820482D01*
X158145912Y-76820480D01*
X158215212Y-76780470D01*
X159422042Y-75573638D01*
X159437669Y-75566351D01*
X159450883Y-75555264D01*
X159467869Y-75552268D01*
X159471018Y-75550801D01*
X159477903Y-75550500D01*
X159522096Y-75550500D01*
X159572876Y-75568982D01*
X159577957Y-75573639D01*
X163026361Y-79022043D01*
X163049199Y-79071019D01*
X163049500Y-79077904D01*
X163049500Y-84739253D01*
X163031018Y-84790033D01*
X163026361Y-84795114D01*
X162959492Y-84861982D01*
X162887016Y-84987513D01*
X162887015Y-84987515D01*
X162849500Y-85127524D01*
X162849500Y-85272475D01*
X162887015Y-85412484D01*
X162887016Y-85412486D01*
X162959492Y-85538017D01*
X163061982Y-85640507D01*
X163061984Y-85640508D01*
X163061985Y-85640509D01*
X163187515Y-85712984D01*
X163327525Y-85750500D01*
X163327527Y-85750500D01*
X163472473Y-85750500D01*
X163472475Y-85750500D01*
X163550055Y-85729712D01*
X163603886Y-85734421D01*
X163642098Y-85772633D01*
X163649500Y-85806020D01*
X163649500Y-87439253D01*
X163631018Y-87490033D01*
X163626361Y-87495114D01*
X163559492Y-87561982D01*
X163487016Y-87687513D01*
X163487015Y-87687515D01*
X163449500Y-87827524D01*
X163449500Y-87972475D01*
X163487015Y-88112484D01*
X163487016Y-88112486D01*
X163559492Y-88238017D01*
X163661982Y-88340507D01*
X163661984Y-88340508D01*
X163661985Y-88340509D01*
X163787515Y-88412984D01*
X163927525Y-88450500D01*
X163927527Y-88450500D01*
X164072473Y-88450500D01*
X164072475Y-88450500D01*
X164212485Y-88412984D01*
X164338015Y-88340509D01*
X164440509Y-88238015D01*
X164512984Y-88112485D01*
X164550500Y-87972475D01*
X164550500Y-87827525D01*
X164512984Y-87687515D01*
X164440509Y-87561985D01*
X164440508Y-87561984D01*
X164440507Y-87561982D01*
X164373639Y-87495114D01*
X164350801Y-87446138D01*
X164350500Y-87439253D01*
X164350500Y-86481459D01*
X168249500Y-86481459D01*
X168249500Y-86678540D01*
X168287948Y-86871835D01*
X168287949Y-86871837D01*
X168363366Y-87053910D01*
X168363369Y-87053915D01*
X168472859Y-87217780D01*
X168472865Y-87217787D01*
X168612212Y-87357134D01*
X168612218Y-87357139D01*
X168776086Y-87466632D01*
X168844848Y-87495114D01*
X168958162Y-87542050D01*
X168958164Y-87542051D01*
X169151459Y-87580500D01*
X170848541Y-87580500D01*
X171041835Y-87542051D01*
X171041837Y-87542050D01*
X171223914Y-87466632D01*
X171387782Y-87357139D01*
X171527139Y-87217782D01*
X171636632Y-87053914D01*
X171712051Y-86871835D01*
X171750500Y-86678541D01*
X171750500Y-86481459D01*
X171712051Y-86288165D01*
X171636632Y-86106086D01*
X171563636Y-85996840D01*
X171527140Y-85942219D01*
X171527134Y-85942212D01*
X171387787Y-85802865D01*
X171387780Y-85802859D01*
X171223915Y-85693369D01*
X171223914Y-85693368D01*
X171223911Y-85693367D01*
X171223910Y-85693366D01*
X171041837Y-85617949D01*
X171041835Y-85617948D01*
X170848541Y-85579500D01*
X169151459Y-85579500D01*
X168958164Y-85617948D01*
X168958162Y-85617949D01*
X168776089Y-85693366D01*
X168776084Y-85693369D01*
X168612219Y-85802859D01*
X168612212Y-85802865D01*
X168472865Y-85942212D01*
X168472859Y-85942219D01*
X168363369Y-86106084D01*
X168363366Y-86106089D01*
X168287949Y-86288162D01*
X168287948Y-86288164D01*
X168249500Y-86481459D01*
X164350500Y-86481459D01*
X164350500Y-83914999D01*
X168204293Y-83914999D01*
X168204293Y-83915000D01*
X169515856Y-83915000D01*
X169500000Y-83974174D01*
X169500000Y-84105826D01*
X169515856Y-84165000D01*
X168204293Y-84165000D01*
X168240350Y-84346275D01*
X168240352Y-84346281D01*
X168319499Y-84537356D01*
X168319502Y-84537362D01*
X168434409Y-84709334D01*
X168434415Y-84709341D01*
X168580658Y-84855584D01*
X168580665Y-84855590D01*
X168752637Y-84970497D01*
X168752643Y-84970500D01*
X168943718Y-85049647D01*
X168943724Y-85049649D01*
X169146585Y-85090000D01*
X169875000Y-85090000D01*
X169875000Y-84524144D01*
X169934174Y-84540000D01*
X170065826Y-84540000D01*
X170125000Y-84524144D01*
X170125000Y-85090000D01*
X170853415Y-85090000D01*
X171056275Y-85049649D01*
X171056281Y-85049647D01*
X171247356Y-84970500D01*
X171247362Y-84970497D01*
X171419334Y-84855590D01*
X171419341Y-84855584D01*
X171565584Y-84709341D01*
X171565590Y-84709334D01*
X171680497Y-84537362D01*
X171680500Y-84537356D01*
X171759647Y-84346281D01*
X171759649Y-84346275D01*
X171795706Y-84165000D01*
X170484144Y-84165000D01*
X170500000Y-84105826D01*
X170500000Y-83974174D01*
X170484144Y-83915000D01*
X171795707Y-83915000D01*
X171795706Y-83914999D01*
X171759649Y-83733724D01*
X171759647Y-83733718D01*
X171680500Y-83542643D01*
X171680497Y-83542637D01*
X171565590Y-83370665D01*
X171565584Y-83370658D01*
X171419341Y-83224415D01*
X171419334Y-83224409D01*
X171247362Y-83109502D01*
X171247356Y-83109499D01*
X171056281Y-83030352D01*
X171056275Y-83030350D01*
X170853415Y-82990000D01*
X170125000Y-82990000D01*
X170125000Y-83555855D01*
X170065826Y-83540000D01*
X169934174Y-83540000D01*
X169875000Y-83555855D01*
X169875000Y-82990000D01*
X169146585Y-82990000D01*
X168943724Y-83030350D01*
X168943718Y-83030352D01*
X168752643Y-83109499D01*
X168752637Y-83109502D01*
X168580665Y-83224409D01*
X168580658Y-83224415D01*
X168434415Y-83370658D01*
X168434409Y-83370665D01*
X168319502Y-83542637D01*
X168319499Y-83542643D01*
X168240352Y-83733718D01*
X168240350Y-83733724D01*
X168204293Y-83914999D01*
X164350500Y-83914999D01*
X164350500Y-81401459D01*
X168249500Y-81401459D01*
X168249500Y-81598540D01*
X168287948Y-81791835D01*
X168287949Y-81791837D01*
X168363366Y-81973910D01*
X168363369Y-81973915D01*
X168472859Y-82137780D01*
X168472865Y-82137787D01*
X168612212Y-82277134D01*
X168612218Y-82277139D01*
X168776086Y-82386632D01*
X168867125Y-82424341D01*
X168958162Y-82462050D01*
X168958164Y-82462051D01*
X169151459Y-82500500D01*
X170848541Y-82500500D01*
X171041835Y-82462051D01*
X171041837Y-82462050D01*
X171223914Y-82386632D01*
X171387782Y-82277139D01*
X171527139Y-82137782D01*
X171636632Y-81973914D01*
X171712051Y-81791835D01*
X171750500Y-81598541D01*
X171750500Y-81401459D01*
X171741031Y-81353856D01*
X171712051Y-81208164D01*
X171712050Y-81208162D01*
X171648985Y-81055909D01*
X171636632Y-81026086D01*
X171527139Y-80862218D01*
X171527134Y-80862212D01*
X171387787Y-80722865D01*
X171387780Y-80722859D01*
X171223915Y-80613369D01*
X171223914Y-80613368D01*
X171223911Y-80613367D01*
X171223910Y-80613366D01*
X171041837Y-80537949D01*
X171041835Y-80537948D01*
X170848541Y-80499500D01*
X169151459Y-80499500D01*
X168958164Y-80537948D01*
X168958162Y-80537949D01*
X168776089Y-80613366D01*
X168776084Y-80613369D01*
X168612219Y-80722859D01*
X168612212Y-80722865D01*
X168472865Y-80862212D01*
X168472859Y-80862219D01*
X168363369Y-81026084D01*
X168363366Y-81026089D01*
X168287949Y-81208162D01*
X168287948Y-81208164D01*
X168249500Y-81401459D01*
X164350500Y-81401459D01*
X164350500Y-78603915D01*
X164350499Y-78603910D01*
X164340364Y-78566086D01*
X164326614Y-78514769D01*
X164325583Y-78512984D01*
X164289508Y-78450500D01*
X164283740Y-78440509D01*
X164280469Y-78434844D01*
X164280468Y-78434843D01*
X164280467Y-78434841D01*
X162247085Y-76401459D01*
X189749500Y-76401459D01*
X189749500Y-76598540D01*
X189787948Y-76791835D01*
X189787949Y-76791837D01*
X189863366Y-76973910D01*
X189863369Y-76973915D01*
X189972859Y-77137780D01*
X189972865Y-77137787D01*
X190112212Y-77277134D01*
X190112218Y-77277139D01*
X190276086Y-77386632D01*
X190367125Y-77424341D01*
X190458162Y-77462050D01*
X190458164Y-77462051D01*
X190651459Y-77500500D01*
X192348541Y-77500500D01*
X192541835Y-77462051D01*
X192541837Y-77462050D01*
X192548015Y-77459491D01*
X192723914Y-77386632D01*
X192887782Y-77277139D01*
X193027139Y-77137782D01*
X193136632Y-76973914D01*
X193212051Y-76791835D01*
X193250500Y-76598541D01*
X193250500Y-76401459D01*
X193227835Y-76287515D01*
X193212051Y-76208164D01*
X193212050Y-76208162D01*
X193136633Y-76026089D01*
X193136632Y-76026086D01*
X193063636Y-75916840D01*
X193027140Y-75862219D01*
X193027134Y-75862212D01*
X192887787Y-75722865D01*
X192887780Y-75722859D01*
X192733839Y-75620000D01*
X192723914Y-75613368D01*
X192723911Y-75613367D01*
X192723910Y-75613366D01*
X192541837Y-75537949D01*
X192541835Y-75537948D01*
X192348541Y-75499500D01*
X190651459Y-75499500D01*
X190458164Y-75537948D01*
X190458162Y-75537949D01*
X190276089Y-75613366D01*
X190276084Y-75613369D01*
X190112219Y-75722859D01*
X190112212Y-75722865D01*
X189972865Y-75862212D01*
X189972859Y-75862219D01*
X189863369Y-76026084D01*
X189863366Y-76026089D01*
X189787949Y-76208162D01*
X189787948Y-76208164D01*
X189749500Y-76401459D01*
X162247085Y-76401459D01*
X159964157Y-74118531D01*
X159884232Y-74072386D01*
X159884228Y-74072385D01*
X159795089Y-74048500D01*
X159795087Y-74048500D01*
X157054856Y-74048500D01*
X157054853Y-74048500D01*
X156965714Y-74072385D01*
X156965710Y-74072386D01*
X156885789Y-74118529D01*
X156803624Y-74200695D01*
X156577957Y-74426361D01*
X156528982Y-74449199D01*
X156522097Y-74449500D01*
X156427524Y-74449500D01*
X156287515Y-74487015D01*
X156287513Y-74487016D01*
X156161982Y-74559492D01*
X156059492Y-74661982D01*
X155987016Y-74787513D01*
X155987015Y-74787515D01*
X155949500Y-74927524D01*
X155949500Y-75022096D01*
X155943601Y-75038303D01*
X155942098Y-75055483D01*
X155932207Y-75069607D01*
X155931018Y-75072876D01*
X155926361Y-75077957D01*
X155877957Y-75126361D01*
X155828981Y-75149199D01*
X155822096Y-75149500D01*
X148067111Y-75149500D01*
X148016331Y-75131018D01*
X147989311Y-75084218D01*
X147998695Y-75031000D01*
X148036879Y-74997514D01*
X148138233Y-74955531D01*
X148197598Y-74930941D01*
X148369655Y-74815977D01*
X148515977Y-74669655D01*
X148630941Y-74497598D01*
X148710130Y-74306420D01*
X148750500Y-74103465D01*
X148750500Y-73896535D01*
X148710130Y-73693580D01*
X148699567Y-73668079D01*
X148645139Y-73536677D01*
X148634224Y-73510326D01*
X218019500Y-73510326D01*
X218019500Y-75259673D01*
X218034033Y-75332738D01*
X218034034Y-75332740D01*
X218037559Y-75338015D01*
X218089398Y-75415601D01*
X218122587Y-75437776D01*
X218172260Y-75470966D01*
X218245326Y-75485500D01*
X219994674Y-75485500D01*
X220067740Y-75470966D01*
X220150601Y-75415601D01*
X220205966Y-75332740D01*
X220220500Y-75259674D01*
X220220500Y-74294497D01*
X220510000Y-74294497D01*
X220510000Y-74475502D01*
X220510001Y-74475518D01*
X220538314Y-74654281D01*
X220538320Y-74654304D01*
X220594250Y-74826441D01*
X220594257Y-74826457D01*
X220676432Y-74987731D01*
X220676436Y-74987737D01*
X220762301Y-75105921D01*
X220762302Y-75105921D01*
X221229270Y-74638953D01*
X221259901Y-74692007D01*
X221352993Y-74785099D01*
X221406045Y-74815728D01*
X220939077Y-75282696D01*
X221057262Y-75368563D01*
X221057268Y-75368567D01*
X221218542Y-75450742D01*
X221218558Y-75450749D01*
X221390695Y-75506679D01*
X221390718Y-75506685D01*
X221569481Y-75534998D01*
X221569498Y-75535000D01*
X221750502Y-75535000D01*
X221750518Y-75534998D01*
X221929281Y-75506685D01*
X221929304Y-75506679D01*
X222101441Y-75450749D01*
X222101457Y-75450742D01*
X222262731Y-75368567D01*
X222380921Y-75282696D01*
X221913954Y-74815729D01*
X221967007Y-74785099D01*
X222060099Y-74692007D01*
X222090729Y-74638954D01*
X222557696Y-75105921D01*
X222643567Y-74987731D01*
X222725742Y-74826457D01*
X222725749Y-74826441D01*
X222781679Y-74654304D01*
X222781685Y-74654281D01*
X222809998Y-74475518D01*
X222810000Y-74475502D01*
X222810000Y-74298393D01*
X223099500Y-74298393D01*
X223099500Y-74471606D01*
X223099501Y-74471622D01*
X223126595Y-74642690D01*
X223126600Y-74642709D01*
X223173651Y-74787515D01*
X223180127Y-74807445D01*
X223250306Y-74945181D01*
X223258771Y-74961793D01*
X223258772Y-74961794D01*
X223329754Y-75059492D01*
X223360586Y-75101928D01*
X223360590Y-75101932D01*
X223360595Y-75101938D01*
X223483061Y-75224404D01*
X223483067Y-75224409D01*
X223483072Y-75224414D01*
X223623212Y-75326232D01*
X223777555Y-75404873D01*
X223942299Y-75458402D01*
X223942305Y-75458402D01*
X223942309Y-75458404D01*
X224080398Y-75480274D01*
X224113389Y-75485500D01*
X224113394Y-75485500D01*
X224286606Y-75485500D01*
X224286611Y-75485500D01*
X224378381Y-75470965D01*
X224457690Y-75458404D01*
X224457692Y-75458403D01*
X224457701Y-75458402D01*
X224622445Y-75404873D01*
X224776788Y-75326232D01*
X224916928Y-75224414D01*
X225039414Y-75101928D01*
X225141232Y-74961788D01*
X225219873Y-74807445D01*
X225273402Y-74642701D01*
X225300500Y-74471611D01*
X225300500Y-74298393D01*
X225639500Y-74298393D01*
X225639500Y-74471606D01*
X225639501Y-74471622D01*
X225666595Y-74642690D01*
X225666600Y-74642709D01*
X225713651Y-74787515D01*
X225720127Y-74807445D01*
X225790306Y-74945181D01*
X225798771Y-74961793D01*
X225798772Y-74961794D01*
X225869754Y-75059492D01*
X225900586Y-75101928D01*
X225900590Y-75101932D01*
X225900595Y-75101938D01*
X226023061Y-75224404D01*
X226023067Y-75224409D01*
X226023072Y-75224414D01*
X226163212Y-75326232D01*
X226317555Y-75404873D01*
X226482299Y-75458402D01*
X226482305Y-75458402D01*
X226482309Y-75458404D01*
X226620398Y-75480274D01*
X226653389Y-75485500D01*
X226653394Y-75485500D01*
X226826606Y-75485500D01*
X226826611Y-75485500D01*
X226918381Y-75470965D01*
X226997690Y-75458404D01*
X226997692Y-75458403D01*
X226997701Y-75458402D01*
X227162445Y-75404873D01*
X227316788Y-75326232D01*
X227456928Y-75224414D01*
X227579414Y-75101928D01*
X227681232Y-74961788D01*
X227759873Y-74807445D01*
X227813402Y-74642701D01*
X227840500Y-74471611D01*
X227840500Y-74298393D01*
X228179500Y-74298393D01*
X228179500Y-74471606D01*
X228179501Y-74471622D01*
X228206595Y-74642690D01*
X228206600Y-74642709D01*
X228253651Y-74787515D01*
X228260127Y-74807445D01*
X228330306Y-74945181D01*
X228338771Y-74961793D01*
X228338772Y-74961794D01*
X228409754Y-75059492D01*
X228440586Y-75101928D01*
X228440590Y-75101932D01*
X228440595Y-75101938D01*
X228563061Y-75224404D01*
X228563067Y-75224409D01*
X228563072Y-75224414D01*
X228703212Y-75326232D01*
X228857555Y-75404873D01*
X229022299Y-75458402D01*
X229022305Y-75458402D01*
X229022309Y-75458404D01*
X229160398Y-75480274D01*
X229193389Y-75485500D01*
X229193394Y-75485500D01*
X229366606Y-75485500D01*
X229366611Y-75485500D01*
X229458381Y-75470965D01*
X229537690Y-75458404D01*
X229537692Y-75458403D01*
X229537701Y-75458402D01*
X229702445Y-75404873D01*
X229856788Y-75326232D01*
X229996928Y-75224414D01*
X230119414Y-75101928D01*
X230221232Y-74961788D01*
X230299873Y-74807445D01*
X230353402Y-74642701D01*
X230380500Y-74471611D01*
X230380500Y-74298389D01*
X230363651Y-74192007D01*
X230353404Y-74127309D01*
X230353402Y-74127305D01*
X230353402Y-74127299D01*
X230299873Y-73962555D01*
X230221232Y-73808212D01*
X230119414Y-73668072D01*
X230119409Y-73668067D01*
X230119404Y-73668061D01*
X229996938Y-73545595D01*
X229996932Y-73545590D01*
X229996928Y-73545586D01*
X229972072Y-73527527D01*
X229856794Y-73443772D01*
X229856793Y-73443771D01*
X229856790Y-73443769D01*
X229856788Y-73443768D01*
X229702445Y-73365127D01*
X229702444Y-73365126D01*
X229537709Y-73311600D01*
X229537690Y-73311595D01*
X229366622Y-73284501D01*
X229366614Y-73284500D01*
X229366611Y-73284500D01*
X229193389Y-73284500D01*
X229193386Y-73284500D01*
X229193377Y-73284501D01*
X229022309Y-73311595D01*
X229022290Y-73311600D01*
X228857556Y-73365126D01*
X228703206Y-73443771D01*
X228703205Y-73443772D01*
X228563079Y-73545580D01*
X228563061Y-73545595D01*
X228440595Y-73668061D01*
X228440580Y-73668079D01*
X228338772Y-73808205D01*
X228338771Y-73808206D01*
X228260126Y-73962556D01*
X228206600Y-74127290D01*
X228206595Y-74127309D01*
X228179501Y-74298377D01*
X228179500Y-74298393D01*
X227840500Y-74298393D01*
X227840500Y-74298389D01*
X227823651Y-74192007D01*
X227813404Y-74127309D01*
X227813402Y-74127305D01*
X227813402Y-74127299D01*
X227759873Y-73962555D01*
X227681232Y-73808212D01*
X227579414Y-73668072D01*
X227579409Y-73668067D01*
X227579404Y-73668061D01*
X227456938Y-73545595D01*
X227456932Y-73545590D01*
X227456928Y-73545586D01*
X227432072Y-73527527D01*
X227316794Y-73443772D01*
X227316793Y-73443771D01*
X227316790Y-73443769D01*
X227316788Y-73443768D01*
X227162445Y-73365127D01*
X227162444Y-73365126D01*
X226997709Y-73311600D01*
X226997690Y-73311595D01*
X226826622Y-73284501D01*
X226826614Y-73284500D01*
X226826611Y-73284500D01*
X226653389Y-73284500D01*
X226653386Y-73284500D01*
X226653377Y-73284501D01*
X226482309Y-73311595D01*
X226482290Y-73311600D01*
X226317556Y-73365126D01*
X226163206Y-73443771D01*
X226163205Y-73443772D01*
X226023079Y-73545580D01*
X226023061Y-73545595D01*
X225900595Y-73668061D01*
X225900580Y-73668079D01*
X225798772Y-73808205D01*
X225798771Y-73808206D01*
X225720126Y-73962556D01*
X225666600Y-74127290D01*
X225666595Y-74127309D01*
X225639501Y-74298377D01*
X225639500Y-74298393D01*
X225300500Y-74298393D01*
X225300500Y-74298389D01*
X225283651Y-74192007D01*
X225273404Y-74127309D01*
X225273402Y-74127305D01*
X225273402Y-74127299D01*
X225219873Y-73962555D01*
X225141232Y-73808212D01*
X225039414Y-73668072D01*
X225039409Y-73668067D01*
X225039404Y-73668061D01*
X224916938Y-73545595D01*
X224916932Y-73545590D01*
X224916928Y-73545586D01*
X224892072Y-73527527D01*
X224776794Y-73443772D01*
X224776793Y-73443771D01*
X224776790Y-73443769D01*
X224776788Y-73443768D01*
X224622445Y-73365127D01*
X224622444Y-73365126D01*
X224457709Y-73311600D01*
X224457690Y-73311595D01*
X224286622Y-73284501D01*
X224286614Y-73284500D01*
X224286611Y-73284500D01*
X224113389Y-73284500D01*
X224113386Y-73284500D01*
X224113377Y-73284501D01*
X223942309Y-73311595D01*
X223942290Y-73311600D01*
X223777556Y-73365126D01*
X223623206Y-73443771D01*
X223623205Y-73443772D01*
X223483079Y-73545580D01*
X223483061Y-73545595D01*
X223360595Y-73668061D01*
X223360580Y-73668079D01*
X223258772Y-73808205D01*
X223258771Y-73808206D01*
X223180126Y-73962556D01*
X223126600Y-74127290D01*
X223126595Y-74127309D01*
X223099501Y-74298377D01*
X223099500Y-74298393D01*
X222810000Y-74298393D01*
X222810000Y-74294497D01*
X222809998Y-74294481D01*
X222781685Y-74115718D01*
X222781679Y-74115695D01*
X222725749Y-73943558D01*
X222725742Y-73943542D01*
X222643567Y-73782268D01*
X222643563Y-73782262D01*
X222557696Y-73664077D01*
X222090728Y-74131045D01*
X222060099Y-74077993D01*
X221967007Y-73984901D01*
X221913953Y-73954270D01*
X222380921Y-73487302D01*
X222380921Y-73487301D01*
X222262737Y-73401436D01*
X222262731Y-73401432D01*
X222101457Y-73319257D01*
X222101441Y-73319250D01*
X221929304Y-73263320D01*
X221929281Y-73263314D01*
X221750518Y-73235001D01*
X221750502Y-73235000D01*
X221569498Y-73235000D01*
X221569481Y-73235001D01*
X221390718Y-73263314D01*
X221390695Y-73263320D01*
X221218558Y-73319250D01*
X221218542Y-73319257D01*
X221057269Y-73401431D01*
X220939077Y-73487302D01*
X221406045Y-73954270D01*
X221352993Y-73984901D01*
X221259901Y-74077993D01*
X221229270Y-74131045D01*
X220762302Y-73664077D01*
X220676431Y-73782269D01*
X220594257Y-73943542D01*
X220594250Y-73943558D01*
X220538320Y-74115695D01*
X220538314Y-74115718D01*
X220510001Y-74294481D01*
X220510000Y-74294497D01*
X220220500Y-74294497D01*
X220220500Y-73510326D01*
X220205966Y-73437260D01*
X220172728Y-73387515D01*
X220150601Y-73354398D01*
X220097996Y-73319250D01*
X220067740Y-73299034D01*
X220067738Y-73299033D01*
X219994674Y-73284500D01*
X218245326Y-73284500D01*
X218172261Y-73299033D01*
X218172260Y-73299034D01*
X218089398Y-73354398D01*
X218034034Y-73437260D01*
X218034033Y-73437261D01*
X218019500Y-73510326D01*
X148634224Y-73510326D01*
X148630942Y-73502404D01*
X148630940Y-73502401D01*
X148620851Y-73487302D01*
X148563478Y-73401436D01*
X148515978Y-73330346D01*
X148515972Y-73330339D01*
X148369660Y-73184027D01*
X148369653Y-73184021D01*
X148197598Y-73069059D01*
X148197592Y-73069056D01*
X148006422Y-72989870D01*
X148006420Y-72989869D01*
X147803465Y-72949500D01*
X147596535Y-72949500D01*
X147393579Y-72989869D01*
X147393577Y-72989870D01*
X147202407Y-73069056D01*
X147202401Y-73069059D01*
X147030346Y-73184021D01*
X147030339Y-73184027D01*
X146884027Y-73330339D01*
X146884021Y-73330346D01*
X146769059Y-73502401D01*
X146769056Y-73502407D01*
X146689870Y-73693577D01*
X146689869Y-73693579D01*
X146651794Y-73885000D01*
X146649500Y-73896535D01*
X146649500Y-74103465D01*
X146652497Y-74118530D01*
X146689869Y-74306420D01*
X146689870Y-74306422D01*
X146769056Y-74497592D01*
X146769059Y-74497598D01*
X146884021Y-74669653D01*
X146884027Y-74669660D01*
X147030339Y-74815972D01*
X147030346Y-74815978D01*
X147047626Y-74827524D01*
X147202402Y-74930941D01*
X147202407Y-74930943D01*
X147363121Y-74997514D01*
X147402963Y-75034022D01*
X147410016Y-75087599D01*
X147380981Y-75133175D01*
X147332889Y-75149500D01*
X144667111Y-75149500D01*
X144616331Y-75131018D01*
X144589311Y-75084218D01*
X144598695Y-75031000D01*
X144636879Y-74997514D01*
X144738233Y-74955531D01*
X144797598Y-74930941D01*
X144969655Y-74815977D01*
X145115977Y-74669655D01*
X145230941Y-74497598D01*
X145310130Y-74306420D01*
X145350500Y-74103465D01*
X145350500Y-73896535D01*
X145310130Y-73693580D01*
X145297909Y-73664077D01*
X145230943Y-73502407D01*
X145230941Y-73502402D01*
X145163478Y-73401436D01*
X145115978Y-73330346D01*
X145115972Y-73330339D01*
X144969660Y-73184027D01*
X144969653Y-73184021D01*
X144797598Y-73069059D01*
X144797592Y-73069056D01*
X144606422Y-72989870D01*
X144606420Y-72989869D01*
X144403465Y-72949500D01*
X144196535Y-72949500D01*
X143993579Y-72989869D01*
X143993577Y-72989870D01*
X143802407Y-73069056D01*
X143802401Y-73069059D01*
X143630346Y-73184021D01*
X143630339Y-73184027D01*
X143484027Y-73330339D01*
X143484021Y-73330346D01*
X143369059Y-73502401D01*
X143369056Y-73502407D01*
X143289870Y-73693577D01*
X143289869Y-73693579D01*
X143251794Y-73885000D01*
X143249500Y-73896535D01*
X143249500Y-74103465D01*
X143252497Y-74118530D01*
X143289869Y-74306420D01*
X143289870Y-74306422D01*
X143369056Y-74497592D01*
X143369059Y-74497598D01*
X143484021Y-74669653D01*
X143484027Y-74669660D01*
X143630339Y-74815972D01*
X143630346Y-74815978D01*
X143647626Y-74827524D01*
X143802402Y-74930941D01*
X143802407Y-74930943D01*
X143963121Y-74997514D01*
X144002963Y-75034022D01*
X144010016Y-75087599D01*
X143980981Y-75133175D01*
X143932889Y-75149500D01*
X128311904Y-75149500D01*
X128261124Y-75131018D01*
X128234104Y-75084218D01*
X128243488Y-75031000D01*
X128256043Y-75014639D01*
X128463239Y-74807443D01*
X129131747Y-74138933D01*
X129180722Y-74116096D01*
X129208051Y-74118486D01*
X129327525Y-74150500D01*
X129327527Y-74150500D01*
X129472473Y-74150500D01*
X129472475Y-74150500D01*
X129612485Y-74112984D01*
X129738015Y-74040509D01*
X129840509Y-73938015D01*
X129912984Y-73812485D01*
X129950500Y-73672475D01*
X129950500Y-73527525D01*
X129912984Y-73387515D01*
X129881484Y-73332956D01*
X129872101Y-73279740D01*
X129899120Y-73232941D01*
X129934491Y-73215976D01*
X129977933Y-73207335D01*
X129977940Y-73207333D01*
X130132620Y-73143262D01*
X130132621Y-73143262D01*
X130236844Y-73073621D01*
X130236844Y-73073620D01*
X129874146Y-72710922D01*
X129944905Y-72670070D01*
X130010070Y-72604905D01*
X130050922Y-72534146D01*
X130413620Y-72896844D01*
X130413621Y-72896844D01*
X130483262Y-72792621D01*
X130483262Y-72792620D01*
X130547334Y-72637938D01*
X130547335Y-72637936D01*
X130580000Y-72473717D01*
X130580000Y-72306282D01*
X130547335Y-72142063D01*
X130547334Y-72142061D01*
X130483262Y-71987379D01*
X130483259Y-71987373D01*
X130413621Y-71883154D01*
X130413620Y-71883154D01*
X130050921Y-72245852D01*
X130010070Y-72175095D01*
X129944905Y-72109930D01*
X129874145Y-72069077D01*
X130236844Y-71706378D01*
X130236844Y-71706376D01*
X130132626Y-71636740D01*
X130132620Y-71636737D01*
X129977938Y-71572665D01*
X129977936Y-71572664D01*
X129813718Y-71540000D01*
X129646282Y-71540000D01*
X129482063Y-71572664D01*
X129482061Y-71572665D01*
X129327379Y-71636737D01*
X129327373Y-71636740D01*
X129223154Y-71706376D01*
X129223154Y-71706378D01*
X129585853Y-72069077D01*
X129515095Y-72109930D01*
X129449930Y-72175095D01*
X129409077Y-72245853D01*
X129046378Y-71883154D01*
X129046376Y-71883154D01*
X128976740Y-71987373D01*
X128976737Y-71987379D01*
X128912665Y-72142061D01*
X128912664Y-72142063D01*
X128880000Y-72306282D01*
X128880000Y-72473717D01*
X128912664Y-72637936D01*
X128912665Y-72637938D01*
X128976737Y-72792620D01*
X128976740Y-72792626D01*
X129046376Y-72896844D01*
X129046378Y-72896844D01*
X129409077Y-72534145D01*
X129449930Y-72604905D01*
X129515095Y-72670070D01*
X129585852Y-72710921D01*
X129232870Y-73063904D01*
X129197461Y-73084350D01*
X129187515Y-73087015D01*
X129061982Y-73159492D01*
X128959493Y-73261981D01*
X128885676Y-73389835D01*
X128873121Y-73406195D01*
X127752957Y-74526361D01*
X127703981Y-74549199D01*
X127697096Y-74549500D01*
X127474814Y-74549500D01*
X127424034Y-74531018D01*
X127418963Y-74526371D01*
X127352083Y-74459491D01*
X127296022Y-74427124D01*
X127226554Y-74387016D01*
X127226552Y-74387015D01*
X127086543Y-74349500D01*
X126941593Y-74349500D01*
X126941592Y-74349500D01*
X126801583Y-74387015D01*
X126801581Y-74387016D01*
X126676050Y-74459492D01*
X126573560Y-74561982D01*
X126501084Y-74687513D01*
X126501083Y-74687515D01*
X126463568Y-74827524D01*
X126463568Y-74879223D01*
X126445086Y-74930003D01*
X126405015Y-74955531D01*
X126287515Y-74987015D01*
X126287513Y-74987016D01*
X126161982Y-75059492D01*
X126059492Y-75161982D01*
X125987016Y-75287513D01*
X125987015Y-75287515D01*
X125949500Y-75427524D01*
X124950500Y-75427524D01*
X124950500Y-75219325D01*
X124956399Y-75203117D01*
X124957902Y-75185939D01*
X124967792Y-75171812D01*
X124968982Y-75168545D01*
X124973627Y-75163475D01*
X125076809Y-75060293D01*
X125112219Y-75039849D01*
X125212485Y-75012984D01*
X125338015Y-74940509D01*
X125440509Y-74838015D01*
X125512984Y-74712485D01*
X125550500Y-74572475D01*
X125550500Y-74477904D01*
X125568982Y-74427124D01*
X125573639Y-74422043D01*
X127749143Y-72246540D01*
X128315726Y-71679957D01*
X129147565Y-70848117D01*
X129147567Y-70848115D01*
X129193712Y-70768190D01*
X129212767Y-70697074D01*
X129217598Y-70679046D01*
X129217598Y-70175421D01*
X130379500Y-70175421D01*
X130379500Y-70304578D01*
X130412925Y-70429323D01*
X130412926Y-70429327D01*
X130477503Y-70541176D01*
X130568823Y-70632496D01*
X130568825Y-70632497D01*
X130568826Y-70632498D01*
X130680674Y-70697074D01*
X130805424Y-70730500D01*
X130805426Y-70730500D01*
X131354574Y-70730500D01*
X131354576Y-70730500D01*
X131479326Y-70697074D01*
X131591174Y-70632498D01*
X131682498Y-70541174D01*
X131747074Y-70429326D01*
X131780500Y-70304576D01*
X131780500Y-70175424D01*
X131747074Y-70050674D01*
X131682498Y-69938826D01*
X131682497Y-69938825D01*
X131682496Y-69938823D01*
X131591176Y-69847503D01*
X131479327Y-69782926D01*
X131479323Y-69782925D01*
X131354578Y-69749500D01*
X131354576Y-69749500D01*
X130805424Y-69749500D01*
X130805421Y-69749500D01*
X130680676Y-69782925D01*
X130680672Y-69782926D01*
X130568823Y-69847503D01*
X130477503Y-69938823D01*
X130412926Y-70050672D01*
X130412925Y-70050676D01*
X130379500Y-70175421D01*
X129217598Y-70175421D01*
X129217598Y-68916021D01*
X129236080Y-68865241D01*
X129282880Y-68838221D01*
X129326830Y-68843035D01*
X129482061Y-68907334D01*
X129482063Y-68907335D01*
X129646282Y-68940000D01*
X129813718Y-68940000D01*
X129962693Y-68910367D01*
X132766657Y-68910367D01*
X132766657Y-69055318D01*
X132804172Y-69195327D01*
X132804173Y-69195329D01*
X132876649Y-69320860D01*
X132979139Y-69423350D01*
X132979141Y-69423351D01*
X132979142Y-69423352D01*
X133104672Y-69495827D01*
X133244682Y-69533343D01*
X133275206Y-69533343D01*
X133325986Y-69551825D01*
X133331067Y-69556482D01*
X135713182Y-71938598D01*
X135733629Y-71974012D01*
X135753041Y-72046458D01*
X135825518Y-72171991D01*
X135928008Y-72274481D01*
X136048282Y-72343922D01*
X136053541Y-72346958D01*
X136193551Y-72384474D01*
X136193553Y-72384474D01*
X136338499Y-72384474D01*
X136338501Y-72384474D01*
X136478511Y-72346958D01*
X136604041Y-72274483D01*
X136706535Y-72171989D01*
X136779010Y-72046459D01*
X136816526Y-71906449D01*
X136816526Y-71761499D01*
X136779010Y-71621489D01*
X136706535Y-71495959D01*
X136706534Y-71495958D01*
X136706533Y-71495956D01*
X136604043Y-71393466D01*
X136478510Y-71320989D01*
X136406064Y-71301577D01*
X136370650Y-71281130D01*
X135722016Y-70632496D01*
X134964846Y-69875326D01*
X169749500Y-69875326D01*
X169749500Y-71924673D01*
X169764033Y-71997738D01*
X169764034Y-71997740D01*
X169773470Y-72011862D01*
X169819398Y-72080601D01*
X169852587Y-72102776D01*
X169902260Y-72135966D01*
X169975326Y-72150500D01*
X172024674Y-72150500D01*
X172097740Y-72135966D01*
X172180601Y-72080601D01*
X172235966Y-71997740D01*
X172250500Y-71924674D01*
X172250500Y-70797692D01*
X177300000Y-70797692D01*
X177300000Y-71002307D01*
X177300001Y-71002323D01*
X177332007Y-71204406D01*
X177332012Y-71204425D01*
X177395242Y-71399024D01*
X177395249Y-71399042D01*
X177488137Y-71581344D01*
X177488144Y-71581355D01*
X177594912Y-71728310D01*
X177594913Y-71728310D01*
X178169270Y-71153953D01*
X178199901Y-71207007D01*
X178292993Y-71300099D01*
X178346045Y-71330728D01*
X177771688Y-71905085D01*
X177771688Y-71905086D01*
X177918644Y-72011855D01*
X177918655Y-72011862D01*
X178100957Y-72104750D01*
X178100975Y-72104757D01*
X178295574Y-72167987D01*
X178295593Y-72167992D01*
X178497676Y-72199998D01*
X178497693Y-72200000D01*
X178702307Y-72200000D01*
X178702323Y-72199998D01*
X178904406Y-72167992D01*
X178904425Y-72167987D01*
X179099024Y-72104757D01*
X179099042Y-72104750D01*
X179281344Y-72011862D01*
X179281355Y-72011855D01*
X179428310Y-71905085D01*
X178853954Y-71330729D01*
X178907007Y-71300099D01*
X179000099Y-71207007D01*
X179030729Y-71153954D01*
X179605085Y-71728310D01*
X179711855Y-71581355D01*
X179711862Y-71581344D01*
X179804750Y-71399042D01*
X179804757Y-71399024D01*
X179867987Y-71204425D01*
X179867992Y-71204406D01*
X179899998Y-71002323D01*
X179900000Y-71002307D01*
X179900000Y-70797692D01*
X179899998Y-70797676D01*
X179867992Y-70595593D01*
X179867987Y-70595574D01*
X179804757Y-70400975D01*
X179804750Y-70400957D01*
X179711862Y-70218655D01*
X179711855Y-70218644D01*
X179605086Y-70071688D01*
X179605085Y-70071688D01*
X179030728Y-70646045D01*
X179000099Y-70592993D01*
X178907007Y-70499901D01*
X178853953Y-70469270D01*
X179428310Y-69894913D01*
X179428310Y-69894912D01*
X179281355Y-69788144D01*
X179281344Y-69788137D01*
X179099042Y-69695249D01*
X179099024Y-69695242D01*
X178904425Y-69632012D01*
X178904406Y-69632007D01*
X178702323Y-69600001D01*
X178702307Y-69600000D01*
X178497693Y-69600000D01*
X178497676Y-69600001D01*
X178295593Y-69632007D01*
X178295574Y-69632012D01*
X178100975Y-69695242D01*
X178100967Y-69695245D01*
X177918654Y-69788138D01*
X177771688Y-69894913D01*
X178346045Y-70469270D01*
X178292993Y-70499901D01*
X178199901Y-70592993D01*
X178169270Y-70646045D01*
X177594913Y-70071688D01*
X177488138Y-70218654D01*
X177395245Y-70400967D01*
X177395242Y-70400975D01*
X177332012Y-70595574D01*
X177332007Y-70595593D01*
X177300001Y-70797676D01*
X177300000Y-70797692D01*
X172250500Y-70797692D01*
X172250500Y-69875326D01*
X172235966Y-69802260D01*
X172200714Y-69749500D01*
X172180601Y-69719398D01*
X172130928Y-69686209D01*
X172097740Y-69664034D01*
X172097738Y-69664033D01*
X172024674Y-69649500D01*
X169975326Y-69649500D01*
X169902261Y-69664033D01*
X169902260Y-69664034D01*
X169819398Y-69719398D01*
X169764034Y-69802260D01*
X169764033Y-69802261D01*
X169749500Y-69875326D01*
X134964846Y-69875326D01*
X133796874Y-68707355D01*
X133784320Y-68690995D01*
X133757664Y-68644825D01*
X133655174Y-68542335D01*
X133529643Y-68469859D01*
X133529641Y-68469858D01*
X133389632Y-68432343D01*
X133244682Y-68432343D01*
X133244681Y-68432343D01*
X133104672Y-68469858D01*
X133104670Y-68469859D01*
X132979139Y-68542335D01*
X132876649Y-68644825D01*
X132804173Y-68770356D01*
X132804172Y-68770358D01*
X132766657Y-68910367D01*
X129962693Y-68910367D01*
X129977936Y-68907335D01*
X129977938Y-68907334D01*
X130132620Y-68843262D01*
X130132626Y-68843259D01*
X130138244Y-68839505D01*
X130138246Y-68839504D01*
X130236844Y-68773621D01*
X130236844Y-68773620D01*
X129874146Y-68410922D01*
X129944905Y-68370070D01*
X130010070Y-68304905D01*
X130050922Y-68234146D01*
X130413620Y-68596844D01*
X130413621Y-68596844D01*
X130483262Y-68492621D01*
X130483262Y-68492620D01*
X130547334Y-68337938D01*
X130547335Y-68337936D01*
X130580000Y-68173717D01*
X130580000Y-68006282D01*
X130547335Y-67842063D01*
X130547334Y-67842061D01*
X130483262Y-67687379D01*
X130483259Y-67687373D01*
X130398494Y-67560513D01*
X130385650Y-67508023D01*
X130409550Y-67459556D01*
X130424677Y-67448209D01*
X130438015Y-67440509D01*
X130540509Y-67338015D01*
X130612984Y-67212485D01*
X130650500Y-67072475D01*
X130650500Y-66927525D01*
X130612984Y-66787515D01*
X130540509Y-66661985D01*
X130540508Y-66661984D01*
X130540507Y-66661982D01*
X130438017Y-66559492D01*
X130312486Y-66487016D01*
X130312484Y-66487015D01*
X130172475Y-66449500D01*
X130027525Y-66449500D01*
X130027524Y-66449500D01*
X129887515Y-66487015D01*
X129887513Y-66487016D01*
X129761982Y-66559492D01*
X129659492Y-66661982D01*
X129587016Y-66787513D01*
X129587015Y-66787515D01*
X129575646Y-66829947D01*
X129544650Y-66874213D01*
X129499338Y-66888500D01*
X129331357Y-66888500D01*
X129242218Y-66912385D01*
X129242214Y-66912386D01*
X129162289Y-66958531D01*
X128598531Y-67522289D01*
X128559728Y-67589499D01*
X128552386Y-67602215D01*
X128552385Y-67602218D01*
X128528500Y-67691357D01*
X128528500Y-68131938D01*
X128525808Y-68152384D01*
X128516598Y-68186755D01*
X128516598Y-70454998D01*
X128498116Y-70505778D01*
X128493459Y-70510859D01*
X125077957Y-73926361D01*
X125028981Y-73949199D01*
X125022096Y-73949500D01*
X124927524Y-73949500D01*
X124787515Y-73987015D01*
X124787513Y-73987016D01*
X124661982Y-74059492D01*
X124559492Y-74161982D01*
X124487015Y-74287514D01*
X124460149Y-74387778D01*
X124439703Y-74423191D01*
X124139511Y-74723385D01*
X124080202Y-74826110D01*
X124080201Y-74826112D01*
X124080201Y-74826113D01*
X124080201Y-74826114D01*
X124061701Y-74895155D01*
X124049500Y-74940690D01*
X124049500Y-83158121D01*
X124038916Y-83197621D01*
X123987016Y-83287513D01*
X123987015Y-83287515D01*
X123949500Y-83427524D01*
X111138000Y-83427524D01*
X111138000Y-82962826D01*
X111123466Y-82889760D01*
X111088556Y-82837513D01*
X111068101Y-82806898D01*
X111018428Y-82773709D01*
X110985240Y-82751534D01*
X110985238Y-82751533D01*
X110912174Y-82737000D01*
X108062826Y-82737000D01*
X107989761Y-82751533D01*
X107989760Y-82751534D01*
X107906898Y-82806898D01*
X107851534Y-82889760D01*
X107851533Y-82889761D01*
X107837000Y-82962826D01*
X85000000Y-82962826D01*
X85000000Y-82601873D01*
X85018482Y-82551093D01*
X85065282Y-82524073D01*
X85094410Y-82524390D01*
X85162826Y-82538000D01*
X85162827Y-82538000D01*
X88012174Y-82538000D01*
X88085240Y-82523466D01*
X88168101Y-82468101D01*
X88223466Y-82385240D01*
X88238000Y-82312174D01*
X88238000Y-79462826D01*
X107837000Y-79462826D01*
X107837000Y-82312173D01*
X107851533Y-82385238D01*
X107851534Y-82385240D01*
X107852465Y-82386633D01*
X107906898Y-82468101D01*
X107940087Y-82490276D01*
X107989760Y-82523466D01*
X108062826Y-82538000D01*
X110912174Y-82538000D01*
X110985240Y-82523466D01*
X111068101Y-82468101D01*
X111123466Y-82385240D01*
X111138000Y-82312174D01*
X111138000Y-79462826D01*
X111123466Y-79389760D01*
X111084764Y-79331837D01*
X111068101Y-79306898D01*
X111018428Y-79273709D01*
X110985240Y-79251534D01*
X110985238Y-79251533D01*
X110912174Y-79237000D01*
X108062826Y-79237000D01*
X107989761Y-79251533D01*
X107989760Y-79251534D01*
X107906898Y-79306898D01*
X107851534Y-79389760D01*
X107851533Y-79389761D01*
X107837000Y-79462826D01*
X88238000Y-79462826D01*
X88223466Y-79389760D01*
X88184764Y-79331837D01*
X88168101Y-79306898D01*
X88118428Y-79273709D01*
X88085240Y-79251534D01*
X88085238Y-79251533D01*
X88012174Y-79237000D01*
X85162826Y-79237000D01*
X85094412Y-79250608D01*
X85041001Y-79242387D01*
X85005371Y-79201758D01*
X85000000Y-79173126D01*
X85000000Y-74345000D01*
X93520463Y-74345000D01*
X94330856Y-74345000D01*
X94315000Y-74404174D01*
X94315000Y-74535826D01*
X94330856Y-74595000D01*
X93520463Y-74595000D01*
X93543315Y-74739283D01*
X93543320Y-74739304D01*
X93599250Y-74911441D01*
X93599257Y-74911457D01*
X93681432Y-75072731D01*
X93681436Y-75072737D01*
X93787823Y-75219167D01*
X93787838Y-75219185D01*
X93915814Y-75347161D01*
X93915832Y-75347176D01*
X94062262Y-75453563D01*
X94062268Y-75453567D01*
X94223542Y-75535742D01*
X94223558Y-75535749D01*
X94395695Y-75591679D01*
X94395718Y-75591685D01*
X94574481Y-75619998D01*
X94574498Y-75620000D01*
X94690000Y-75620000D01*
X94690000Y-74954144D01*
X94749174Y-74970000D01*
X94880826Y-74970000D01*
X94940000Y-74954144D01*
X94940000Y-75620000D01*
X95055502Y-75620000D01*
X95055518Y-75619998D01*
X95234281Y-75591685D01*
X95234304Y-75591679D01*
X95406441Y-75535749D01*
X95406457Y-75535742D01*
X95567731Y-75453567D01*
X95567737Y-75453563D01*
X95714167Y-75347176D01*
X95714185Y-75347161D01*
X95842161Y-75219185D01*
X95842176Y-75219167D01*
X95948563Y-75072737D01*
X95948567Y-75072731D01*
X96030742Y-74911457D01*
X96030749Y-74911441D01*
X96086679Y-74739304D01*
X96086684Y-74739283D01*
X96109537Y-74595000D01*
X95299144Y-74595000D01*
X95315000Y-74535826D01*
X95315000Y-74404174D01*
X95299144Y-74345000D01*
X96109537Y-74345000D01*
X96086684Y-74200716D01*
X96086679Y-74200695D01*
X96030749Y-74028558D01*
X96030742Y-74028542D01*
X95948567Y-73867268D01*
X95948563Y-73867262D01*
X95842176Y-73720832D01*
X95842161Y-73720814D01*
X95714185Y-73592838D01*
X95714167Y-73592823D01*
X95567737Y-73486436D01*
X95567731Y-73486432D01*
X95406457Y-73404257D01*
X95406441Y-73404250D01*
X95234304Y-73348320D01*
X95234281Y-73348314D01*
X95055518Y-73320001D01*
X95055502Y-73320000D01*
X94940000Y-73320000D01*
X94940000Y-73985855D01*
X94880826Y-73970000D01*
X94749174Y-73970000D01*
X94690000Y-73985855D01*
X94690000Y-73320000D01*
X94574498Y-73320000D01*
X94574481Y-73320001D01*
X94395718Y-73348314D01*
X94395695Y-73348320D01*
X94223558Y-73404250D01*
X94223542Y-73404257D01*
X94062268Y-73486432D01*
X94062262Y-73486436D01*
X93915832Y-73592823D01*
X93915814Y-73592838D01*
X93787838Y-73720814D01*
X93787823Y-73720832D01*
X93681436Y-73867262D01*
X93681432Y-73867268D01*
X93599257Y-74028542D01*
X93599250Y-74028558D01*
X93543320Y-74200695D01*
X93543315Y-74200716D01*
X93520463Y-74345000D01*
X85000000Y-74345000D01*
X85000000Y-71322127D01*
X93564500Y-71322127D01*
X93564500Y-72617879D01*
X93570908Y-72677479D01*
X93570909Y-72677485D01*
X93621202Y-72812329D01*
X93621205Y-72812334D01*
X93707453Y-72927546D01*
X93822665Y-73013794D01*
X93822670Y-73013797D01*
X93918396Y-73049500D01*
X93957517Y-73064091D01*
X94017127Y-73070500D01*
X95612872Y-73070499D01*
X95612879Y-73070499D01*
X95650806Y-73066421D01*
X95672483Y-73064091D01*
X95739907Y-73038943D01*
X95807329Y-73013797D01*
X95807329Y-73013796D01*
X95807331Y-73013796D01*
X95922546Y-72927546D01*
X96008796Y-72812331D01*
X96016146Y-72792626D01*
X96059091Y-72677482D01*
X96059091Y-72677481D01*
X96065500Y-72617872D01*
X96065500Y-72306282D01*
X124080000Y-72306282D01*
X124080000Y-72473717D01*
X124112664Y-72637936D01*
X124112665Y-72637938D01*
X124176737Y-72792620D01*
X124176740Y-72792626D01*
X124246376Y-72896844D01*
X124246378Y-72896844D01*
X124609077Y-72534145D01*
X124649930Y-72604905D01*
X124715095Y-72670070D01*
X124785852Y-72710921D01*
X124423154Y-73073620D01*
X124423154Y-73073621D01*
X124527373Y-73143259D01*
X124527379Y-73143262D01*
X124682061Y-73207334D01*
X124682063Y-73207335D01*
X124846282Y-73240000D01*
X125013718Y-73240000D01*
X125177936Y-73207335D01*
X125177938Y-73207334D01*
X125332620Y-73143262D01*
X125332621Y-73143262D01*
X125436844Y-73073621D01*
X125436844Y-73073620D01*
X125074146Y-72710922D01*
X125144905Y-72670070D01*
X125210070Y-72604905D01*
X125250922Y-72534146D01*
X125613620Y-72896844D01*
X125613621Y-72896844D01*
X125683262Y-72792621D01*
X125683262Y-72792620D01*
X125747334Y-72637938D01*
X125747335Y-72637936D01*
X125780000Y-72473717D01*
X125780000Y-72306282D01*
X125747335Y-72142063D01*
X125747334Y-72142061D01*
X125683262Y-71987379D01*
X125683259Y-71987373D01*
X125613621Y-71883154D01*
X125613620Y-71883154D01*
X125250921Y-72245852D01*
X125210070Y-72175095D01*
X125144905Y-72109930D01*
X125074145Y-72069077D01*
X125436844Y-71706378D01*
X125436844Y-71706376D01*
X125332626Y-71636740D01*
X125332620Y-71636737D01*
X125177938Y-71572665D01*
X125177936Y-71572664D01*
X125013718Y-71540000D01*
X124846282Y-71540000D01*
X124682063Y-71572664D01*
X124682061Y-71572665D01*
X124527379Y-71636737D01*
X124527373Y-71636740D01*
X124423154Y-71706376D01*
X124423154Y-71706378D01*
X124785853Y-72069077D01*
X124715095Y-72109930D01*
X124649930Y-72175095D01*
X124609077Y-72245853D01*
X124246378Y-71883154D01*
X124246376Y-71883154D01*
X124176740Y-71987373D01*
X124176737Y-71987379D01*
X124112665Y-72142061D01*
X124112664Y-72142063D01*
X124080000Y-72306282D01*
X96065500Y-72306282D01*
X96065500Y-72302401D01*
X96065500Y-72040000D01*
X96065499Y-71322128D01*
X96065499Y-71322127D01*
X96065499Y-71322120D01*
X96059091Y-71262520D01*
X96059090Y-71262514D01*
X96008797Y-71127670D01*
X96008794Y-71127665D01*
X95922546Y-71012453D01*
X95807334Y-70926205D01*
X95807329Y-70926202D01*
X95672482Y-70875908D01*
X95619281Y-70870188D01*
X95612873Y-70869500D01*
X95612872Y-70869500D01*
X94017120Y-70869500D01*
X93957520Y-70875908D01*
X93957514Y-70875909D01*
X93822670Y-70926202D01*
X93822665Y-70926205D01*
X93707453Y-71012453D01*
X93621205Y-71127665D01*
X93621202Y-71127670D01*
X93570908Y-71262517D01*
X93570908Y-71262518D01*
X93564500Y-71322127D01*
X85000000Y-71322127D01*
X85000000Y-70170155D01*
X123049500Y-70170155D01*
X123049500Y-70309844D01*
X123085651Y-70444762D01*
X123085652Y-70444766D01*
X123155495Y-70565737D01*
X123254262Y-70664504D01*
X123254264Y-70664505D01*
X123254265Y-70664506D01*
X123310678Y-70697076D01*
X123355967Y-70723224D01*
X123375235Y-70734348D01*
X123510158Y-70770500D01*
X123510160Y-70770500D01*
X123649840Y-70770500D01*
X123649842Y-70770500D01*
X123784765Y-70734348D01*
X123905735Y-70664506D01*
X124004506Y-70565735D01*
X124074348Y-70444765D01*
X124110500Y-70309842D01*
X124110500Y-70170158D01*
X124074348Y-70035235D01*
X124004506Y-69914265D01*
X124004505Y-69914264D01*
X124004504Y-69914262D01*
X123905737Y-69815495D01*
X123784766Y-69745652D01*
X123784762Y-69745651D01*
X123649844Y-69709500D01*
X123649842Y-69709500D01*
X123510158Y-69709500D01*
X123510155Y-69709500D01*
X123375237Y-69745651D01*
X123375233Y-69745652D01*
X123254262Y-69815495D01*
X123155495Y-69914262D01*
X123085652Y-70035233D01*
X123085651Y-70035237D01*
X123049500Y-70170155D01*
X85000000Y-70170155D01*
X85000000Y-68006282D01*
X124080000Y-68006282D01*
X124080000Y-68173717D01*
X124112664Y-68337936D01*
X124112665Y-68337938D01*
X124176737Y-68492620D01*
X124176740Y-68492626D01*
X124246376Y-68596844D01*
X124246378Y-68596844D01*
X124609077Y-68234145D01*
X124649930Y-68304905D01*
X124715095Y-68370070D01*
X124785852Y-68410921D01*
X124423154Y-68773620D01*
X124423154Y-68773621D01*
X124527373Y-68843259D01*
X124527379Y-68843262D01*
X124682061Y-68907334D01*
X124682063Y-68907335D01*
X124846282Y-68940000D01*
X125013718Y-68940000D01*
X125177936Y-68907335D01*
X125177938Y-68907334D01*
X125332620Y-68843262D01*
X125332621Y-68843262D01*
X125436844Y-68773621D01*
X125436844Y-68773620D01*
X125074146Y-68410922D01*
X125144905Y-68370070D01*
X125210070Y-68304905D01*
X125250922Y-68234146D01*
X125613620Y-68596844D01*
X125613621Y-68596844D01*
X125683262Y-68492621D01*
X125683262Y-68492620D01*
X125747334Y-68337938D01*
X125747335Y-68337936D01*
X125780000Y-68173717D01*
X125780000Y-68006282D01*
X125747335Y-67842063D01*
X125747334Y-67842061D01*
X125683262Y-67687379D01*
X125683259Y-67687373D01*
X125613621Y-67583154D01*
X125613620Y-67583154D01*
X125250921Y-67945852D01*
X125210070Y-67875095D01*
X125144905Y-67809930D01*
X125074145Y-67769077D01*
X125436844Y-67406378D01*
X125436844Y-67406376D01*
X125332626Y-67336740D01*
X125332620Y-67336737D01*
X125177938Y-67272665D01*
X125177936Y-67272664D01*
X125013718Y-67240000D01*
X124846282Y-67240000D01*
X124682063Y-67272664D01*
X124682061Y-67272665D01*
X124527379Y-67336737D01*
X124527373Y-67336740D01*
X124423154Y-67406376D01*
X124423154Y-67406378D01*
X124785853Y-67769077D01*
X124715095Y-67809930D01*
X124649930Y-67875095D01*
X124609077Y-67945853D01*
X124246378Y-67583154D01*
X124246376Y-67583154D01*
X124176740Y-67687373D01*
X124176737Y-67687379D01*
X124112665Y-67842061D01*
X124112664Y-67842063D01*
X124080000Y-68006282D01*
X85000000Y-68006282D01*
X85000000Y-60579000D01*
X85018482Y-60528220D01*
X85065282Y-60501200D01*
X85079000Y-60500000D01*
X254421000Y-60500000D01*
X254471780Y-60518482D01*
G37*
%TD.AperFunction*%
%TD*%
M02*
