%TF.GenerationSoftware,KiCad,Pcbnew,9.0.1*%
%TF.CreationDate,2025-05-11T20:17:02+02:00*%
%TF.ProjectId,BikeLight,42696b65-4c69-4676-9874-2e6b69636164,rev?*%
%TF.SameCoordinates,Original*%
%TF.FileFunction,Paste,Top*%
%TF.FilePolarity,Positive*%
%FSLAX46Y46*%
G04 Gerber Fmt 4.6, Leading zero omitted, Abs format (unit mm)*
G04 Created by KiCad (PCBNEW 9.0.1) date 2025-05-11 20:17:02*
%MOMM*%
%LPD*%
G01*
G04 APERTURE LIST*
G04 Aperture macros list*
%AMRoundRect*
0 Rectangle with rounded corners*
0 $1 Rounding radius*
0 $2 $3 $4 $5 $6 $7 $8 $9 X,Y pos of 4 corners*
0 Add a 4 corners polygon primitive as box body*
4,1,4,$2,$3,$4,$5,$6,$7,$8,$9,$2,$3,0*
0 Add four circle primitives for the rounded corners*
1,1,$1+$1,$2,$3*
1,1,$1+$1,$4,$5*
1,1,$1+$1,$6,$7*
1,1,$1+$1,$8,$9*
0 Add four rect primitives between the rounded corners*
20,1,$1+$1,$2,$3,$4,$5,0*
20,1,$1+$1,$4,$5,$6,$7,0*
20,1,$1+$1,$6,$7,$8,$9,0*
20,1,$1+$1,$8,$9,$2,$3,0*%
G04 Aperture macros list end*
%ADD10C,0.010000*%
%ADD11RoundRect,0.250000X0.650000X-1.000000X0.650000X1.000000X-0.650000X1.000000X-0.650000X-1.000000X0*%
%ADD12RoundRect,0.200000X0.275000X-0.200000X0.275000X0.200000X-0.275000X0.200000X-0.275000X-0.200000X0*%
%ADD13RoundRect,0.075000X-0.075000X-0.425000X0.075000X-0.425000X0.075000X0.425000X-0.075000X0.425000X0*%
%ADD14C,1.100000*%
%ADD15RoundRect,0.200000X-0.200000X-0.275000X0.200000X-0.275000X0.200000X0.275000X-0.200000X0.275000X0*%
%ADD16RoundRect,0.250000X-0.250000X-0.500000X0.250000X-0.500000X0.250000X0.500000X-0.250000X0.500000X0*%
%ADD17RoundRect,0.225000X-0.250000X0.225000X-0.250000X-0.225000X0.250000X-0.225000X0.250000X0.225000X0*%
%ADD18RoundRect,0.112500X0.187500X0.112500X-0.187500X0.112500X-0.187500X-0.112500X0.187500X-0.112500X0*%
%ADD19RoundRect,0.225000X-0.225000X-0.250000X0.225000X-0.250000X0.225000X0.250000X-0.225000X0.250000X0*%
%ADD20RoundRect,0.375000X-0.625000X-0.375000X0.625000X-0.375000X0.625000X0.375000X-0.625000X0.375000X0*%
%ADD21RoundRect,0.500000X-0.500000X-1.400000X0.500000X-1.400000X0.500000X1.400000X-0.500000X1.400000X0*%
%ADD22RoundRect,0.225000X0.250000X-0.225000X0.250000X0.225000X-0.250000X0.225000X-0.250000X-0.225000X0*%
%ADD23RoundRect,0.037500X0.112500X-0.312500X0.112500X0.312500X-0.112500X0.312500X-0.112500X-0.312500X0*%
%ADD24RoundRect,0.250000X-0.312500X-1.450000X0.312500X-1.450000X0.312500X1.450000X-0.312500X1.450000X0*%
%ADD25RoundRect,0.250000X-0.475000X0.250000X-0.475000X-0.250000X0.475000X-0.250000X0.475000X0.250000X0*%
%ADD26RoundRect,0.200000X0.200000X0.275000X-0.200000X0.275000X-0.200000X-0.275000X0.200000X-0.275000X0*%
%ADD27RoundRect,0.150000X0.512500X0.150000X-0.512500X0.150000X-0.512500X-0.150000X0.512500X-0.150000X0*%
%ADD28RoundRect,0.200000X-0.275000X0.200000X-0.275000X-0.200000X0.275000X-0.200000X0.275000X0.200000X0*%
%ADD29RoundRect,0.250000X-1.075000X0.375000X-1.075000X-0.375000X1.075000X-0.375000X1.075000X0.375000X0*%
%ADD30RoundRect,0.112500X0.112500X-0.187500X0.112500X0.187500X-0.112500X0.187500X-0.112500X-0.187500X0*%
%ADD31RoundRect,0.250000X0.475000X-0.250000X0.475000X0.250000X-0.475000X0.250000X-0.475000X-0.250000X0*%
%ADD32RoundRect,0.150000X-0.587500X-0.150000X0.587500X-0.150000X0.587500X0.150000X-0.587500X0.150000X0*%
%ADD33RoundRect,0.150000X0.150000X-0.587500X0.150000X0.587500X-0.150000X0.587500X-0.150000X-0.587500X0*%
%ADD34RoundRect,0.100000X-0.225000X-0.100000X0.225000X-0.100000X0.225000X0.100000X-0.225000X0.100000X0*%
G04 APERTURE END LIST*
D10*
%TO.C,U3*%
X119925000Y-83780000D02*
X119105000Y-83780000D01*
X119105000Y-83220000D01*
X119925000Y-83220000D01*
X119925000Y-83780000D01*
G36*
X119925000Y-83780000D02*
G01*
X119105000Y-83780000D01*
X119105000Y-83220000D01*
X119925000Y-83220000D01*
X119925000Y-83780000D01*
G37*
%TD*%
D11*
%TO.C,D4*%
X137800000Y-85400000D03*
X137800000Y-81400000D03*
%TD*%
D12*
%TO.C,R31*%
X143600000Y-103650000D03*
X143600000Y-102000000D03*
%TD*%
D13*
%TO.C,J3*%
X124550000Y-69480000D03*
X125340000Y-69480000D03*
X126130000Y-69480000D03*
X126920000Y-69480000D03*
X127710000Y-69480000D03*
X128500000Y-69480000D03*
X129290000Y-69480000D03*
X130080000Y-69480000D03*
X130080000Y-71000000D03*
X129290000Y-71000000D03*
X128500000Y-71000000D03*
X127710000Y-71000000D03*
X126920000Y-71000000D03*
X126130000Y-71000000D03*
X125340000Y-71000000D03*
X124550000Y-71000000D03*
D14*
X124930000Y-68090000D03*
X124930000Y-72390000D03*
X129730000Y-68090000D03*
X129730000Y-72390000D03*
%TD*%
D12*
%TO.C,R9*%
X119000000Y-79825000D03*
X119000000Y-78175000D03*
%TD*%
D15*
%TO.C,R1*%
X165375000Y-86700000D03*
X167025000Y-86700000D03*
%TD*%
D16*
%TO.C,U8*%
X147190000Y-79610000D03*
X148460000Y-79610000D03*
X149730000Y-79610000D03*
X151000000Y-79610000D03*
X152270000Y-79610000D03*
X153540000Y-79610000D03*
X154810000Y-79610000D03*
X156080000Y-79610000D03*
X157350000Y-79610000D03*
X158620000Y-79610000D03*
X159890000Y-79610000D03*
X147190000Y-97390000D03*
X148460000Y-97390000D03*
X149730000Y-97390000D03*
X151000000Y-97390000D03*
X152270000Y-97390000D03*
X153540000Y-97390000D03*
X154810000Y-97390000D03*
X156080000Y-97390000D03*
X157350000Y-97390000D03*
X158620000Y-97390000D03*
X159890000Y-97390000D03*
%TD*%
D15*
%TO.C,R30*%
X215975000Y-80600000D03*
X217625000Y-80600000D03*
%TD*%
%TO.C,R14*%
X186650000Y-86660000D03*
X188300000Y-86660000D03*
%TD*%
D12*
%TO.C,R19*%
X153000000Y-101825000D03*
X153000000Y-100175000D03*
%TD*%
D15*
%TO.C,R17*%
X95375000Y-99400000D03*
X97025000Y-99400000D03*
%TD*%
D17*
%TO.C,C9*%
X95400000Y-101225000D03*
X95400000Y-102775000D03*
%TD*%
D18*
%TO.C,D3*%
X109050000Y-76000000D03*
X106950000Y-76000000D03*
%TD*%
D19*
%TO.C,C5*%
X134450000Y-95500000D03*
X136000000Y-95500000D03*
%TD*%
D15*
%TO.C,R4*%
X165375000Y-94200000D03*
X167025000Y-94200000D03*
%TD*%
%TO.C,R10*%
X186674995Y-76500000D03*
X188324995Y-76500000D03*
%TD*%
D20*
%TO.C,U4*%
X134350000Y-88700000D03*
X134350000Y-91000000D03*
D21*
X140650000Y-91000000D03*
D20*
X134350000Y-93300000D03*
%TD*%
D22*
%TO.C,C6*%
X188499995Y-92275000D03*
X188499995Y-90725000D03*
%TD*%
D15*
%TO.C,R2*%
X165375000Y-89200000D03*
X167025000Y-89200000D03*
%TD*%
D23*
%TO.C,U3*%
X118765000Y-84490000D03*
X119265000Y-84490000D03*
X119765000Y-84490000D03*
X120265000Y-84490000D03*
X120265000Y-82510000D03*
X119765000Y-82510000D03*
X119265000Y-82510000D03*
X118765000Y-82510000D03*
%TD*%
D15*
%TO.C,R11*%
X186675000Y-79100000D03*
X188325000Y-79100000D03*
%TD*%
D24*
%TO.C,F1*%
X125862500Y-83500000D03*
X130137500Y-83500000D03*
%TD*%
D25*
%TO.C,C7*%
X100000000Y-71550000D03*
X100000000Y-73450000D03*
%TD*%
D26*
%TO.C,R7*%
X130325000Y-86500000D03*
X128675000Y-86500000D03*
%TD*%
D12*
%TO.C,R28*%
X126100000Y-96725000D03*
X126100000Y-95075000D03*
%TD*%
D27*
%TO.C,U6*%
X109137500Y-71950000D03*
X109137500Y-71000000D03*
X109137500Y-70050000D03*
X106862500Y-70050000D03*
X106862500Y-71000000D03*
X106862500Y-71950000D03*
%TD*%
D28*
%TO.C,R6*%
X134500000Y-83675000D03*
X134500000Y-85325000D03*
%TD*%
D29*
%TO.C,L1*%
X104000000Y-71100000D03*
X104000000Y-73900000D03*
%TD*%
D30*
%TO.C,D2*%
X132500000Y-85550000D03*
X132500000Y-83450000D03*
%TD*%
D17*
%TO.C,C4*%
X132000000Y-88500000D03*
X132000000Y-90050000D03*
%TD*%
D12*
%TO.C,R18*%
X151000000Y-101825000D03*
X151000000Y-100175000D03*
%TD*%
D15*
%TO.C,R3*%
X165375000Y-91700000D03*
X167025000Y-91700000D03*
%TD*%
D28*
%TO.C,R25*%
X159500000Y-71675000D03*
X159500000Y-73325000D03*
%TD*%
%TO.C,R22*%
X156500000Y-71675000D03*
X156500000Y-73325000D03*
%TD*%
D19*
%TO.C,C11*%
X147225000Y-99500000D03*
X148775000Y-99500000D03*
%TD*%
D15*
%TO.C,R12*%
X186675000Y-81600000D03*
X188325000Y-81600000D03*
%TD*%
D17*
%TO.C,C12*%
X126100000Y-98625000D03*
X126100000Y-100175000D03*
%TD*%
D12*
%TO.C,R16*%
X111000000Y-69825000D03*
X111000000Y-68175000D03*
%TD*%
D31*
%TO.C,C8*%
X113000000Y-71950000D03*
X113000000Y-70050000D03*
%TD*%
D15*
%TO.C,R5*%
X164075000Y-100000000D03*
X165725000Y-100000000D03*
%TD*%
D32*
%TO.C,Q1*%
X128062500Y-88550000D03*
X128062500Y-90450000D03*
X129937500Y-89500000D03*
%TD*%
D33*
%TO.C,Q2*%
X163650000Y-70637500D03*
X165550000Y-70637500D03*
X164600000Y-68762500D03*
%TD*%
D15*
%TO.C,R27*%
X152175000Y-74000000D03*
X153825000Y-74000000D03*
%TD*%
D17*
%TO.C,C1*%
X166500000Y-81925000D03*
X166500000Y-83475000D03*
%TD*%
D19*
%TO.C,C3*%
X119225000Y-86500000D03*
X120775000Y-86500000D03*
%TD*%
D25*
%TO.C,C2*%
X130000000Y-92050000D03*
X130000000Y-93950000D03*
%TD*%
D28*
%TO.C,R23*%
X121500000Y-67675000D03*
X121500000Y-69325000D03*
%TD*%
D34*
%TO.C,Q3*%
X221925000Y-81300000D03*
X221925000Y-81950000D03*
X221925000Y-82600000D03*
X223825000Y-82600000D03*
X223825000Y-81950000D03*
X223825000Y-81300000D03*
%TD*%
D12*
%TO.C,R15*%
X111000000Y-73825000D03*
X111000000Y-72175000D03*
%TD*%
D26*
%TO.C,R29*%
X217625000Y-83600000D03*
X215975000Y-83600000D03*
%TD*%
D15*
%TO.C,R13*%
X186674995Y-84000000D03*
X188324995Y-84000000D03*
%TD*%
D12*
%TO.C,R8*%
X122000000Y-79825000D03*
X122000000Y-78175000D03*
%TD*%
D28*
%TO.C,R24*%
X129000000Y-76000000D03*
X129000000Y-77650000D03*
%TD*%
M02*
